<?xml version="1.0" encoding="UTF-8" standalone="no"?>
<svg
   xmlns:dc="http://purl.org/dc/elements/1.1/"
   xmlns:cc="http://creativecommons.org/ns#"
   xmlns:rdf="http://www.w3.org/1999/02/22-rdf-syntax-ns#"
   xmlns:svg="http://www.w3.org/2000/svg"
   xmlns="http://www.w3.org/2000/svg"
   xmlns:sodipodi="http://sodipodi.sourceforge.net/DTD/sodipodi-0.dtd"
   xmlns:inkscape="http://www.inkscape.org/namespaces/inkscape"
   id="Calque_1"
   data-name="Calque 1"
   viewBox="0 0 182.93 208.89"
   version="1.1"
   sodipodi:docname="carte_droite.svg"
   inkscape:version="0.92.1 r15371">
  <metadata
     id="metadata38">
    <rdf:RDF>
      <cc:Work
         rdf:about="">
        <dc:format>image/svg+xml</dc:format>
        <dc:type
           rdf:resource="http://purl.org/dc/dcmitype/StillImage" />
        <dc:title>carte droite</dc:title>
      </cc:Work>
    </rdf:RDF>
  </metadata>
  <sodipodi:namedview
     pagecolor="#ffffff"
     bordercolor="#666666"
     borderopacity="1"
     objecttolerance="10"
     gridtolerance="10"
     guidetolerance="10"
     inkscape:pageopacity="0"
     inkscape:pageshadow="2"
     inkscape:window-width="1920"
     inkscape:window-height="1047"
     id="namedview36"
     showgrid="false"
     inkscape:zoom="0.56489061"
     inkscape:cx="-397.44435"
     inkscape:cy="-230.32476"
     inkscape:window-x="0"
     inkscape:window-y="0"
     inkscape:window-maximized="1"
     inkscape:current-layer="Calque_1" />
  <defs
     id="defs17">
    <style
       id="style2">.cls-1{fill:url(#Dégradé_sans_nom_5);}.cls-2{fill:#25201e;}.cls-3{fill:#c32227;fill-rule:evenodd;}</style>
    <linearGradient
       id="Dégradé_sans_nom_5"
       x1="91.47"
       x2="91.47"
       y2="208.89"
       gradientTransform="translate(-30.21 37.58) rotate(-20)"
       gradientUnits="userSpaceOnUse">
      <stop
         offset="0"
         stop-color="#fff"
         id="stop4" />
      <stop
         offset="0.13"
         stop-color="#f9f9f8"
         id="stop6" />
      <stop
         offset="0.31"
         stop-color="#e6e6e6"
         id="stop8" />
      <stop
         offset="0.53"
         stop-color="#c9c9c8"
         id="stop10" />
      <stop
         offset="0.77"
         stop-color="#a0a09f"
         id="stop12" />
      <stop
         offset="1"
         stop-color="#70706f"
         id="stop14" />
    </linearGradient>
  </defs>
  <title
     id="title19">carte droite</title>
  <rect
     class="cls-1"
     x="-866.72479"
     y="110.00478"
     width="507.48331"
     height="668.82855"
     rx="45.854462"
     ry="45.854462"
     transform="rotate(-0.33584758)"
     id="rect21"
     inkscape:export-xdpi="96"
     inkscape:export-ydpi="96"
     style="stroke-width:3.71592069" />
  <polyline
     class="cls-2"
     points="166.17 55.95 166.38 56.4 125.87 41.54 105.62 34.09 85.41 26.56 105.74 33.78 126.03 41.09 166.61 55.74 166.94 55.86 166.82 56.19"
     id="polyline23"
     transform="matrix(3.4843136,-1.2913656,1.2913656,3.4843136,-1063.9482,202.18812)"
     style="fill:#25201e"
     inkscape:export-xdpi="96"
     inkscape:export-ydpi="96" />
  <path
     class="cls-2"
     d="m -810.04402,589.58063 1.06689,61.90174 0.79713,61.92247 -1.13082,-1.12645 83.35921,-0.69735 83.3451,-0.4147 83.20451,-0.0457 c 27.73481,-0.0154 55.57296,0.24822 83.35943,0.37254 -27.72311,0.36751 -55.44748,1.05253 -83.30879,1.15421 l -83.32947,0.88447 -83.32829,0.56701 -83.33218,0.44954 -1.27893,0.0778 0.0222,-1.11768 0.33853,-62.06595 z"
     id="path25"
     inkscape:connector-curvature="0"
     style="fill:#25201e;stroke-width:3.71592069"
     inkscape:export-xdpi="96"
     inkscape:export-ydpi="96" />
  <path
     class="cls-3"
     d="m -808.04537,232.49384 c -6.40736,-15.57733 -24.22706,-11.9055 -24.37533,6.29965 9.3e-4,9.94659 8.64929,16.17305 14.43591,20.13133 5.78658,3.95823 9.56475,6.56053 10.19117,8.78537 0.52607,-2.21608 4.92119,-5.11311 10.04655,-9.03378 5.59637,-4.25377 14.31811,-10.33955 14.19977,-20.28224 -0.27386,-18.16763 -18.54276,-20.9474 -24.49807,-5.90033 z"
     id="path27"
     inkscape:connector-curvature="0"
     style="fill:#c32227;fill-rule:evenodd;stroke-width:3.71592069"
     inkscape:export-xdpi="96"
     inkscape:export-ydpi="96" />
  <path
     class="cls-3"
     d="m -407.26399,660.4416 c 6.40736,15.57733 24.22706,11.90552 24.37533,-6.29963 -9.5e-4,-9.94659 -8.6493,-16.17307 -14.43588,-20.13133 -5.78662,-3.95825 -9.56475,-6.56055 -10.19122,-8.78537 -0.52605,2.21606 -4.92117,5.11309 -10.04655,9.03378 -5.59631,4.25375 -14.31811,10.33954 -14.19975,20.28222 0.23894,18.18053 18.57756,20.93447 24.49807,5.90033 z"
     id="path29"
     inkscape:connector-curvature="0"
     style="fill:#c32227;fill-rule:evenodd;stroke-width:3.71592069"
     inkscape:export-xdpi="96"
     inkscape:export-ydpi="96" />
  <path
     class="cls-3"
     d="m -812.85541,150.97591 -1.39373,0.51655 a 16.758802,16.758802 0 0 1 -4.26915,0.67077 33.926356,33.926356 0 0 1 -8.15667,-0.62283 1.6721643,1.6721643 0 0 0 -0.92663,0.0662 4.9793337,4.9793337 0 0 0 -2.98068,2.65028 2.861259,2.861259 0 0 0 -0.28241,1.05576 1.6721643,1.6721643 0 0 0 1.42394,1.81041 4.1618312,4.1618312 0 0 0 1.18735,-0.004 l 0.5923,-0.21961 a 9.5870753,9.5870753 0 0 1 -2.56423,0.67299 3.7159207,3.7159207 0 0 1 -1.97338,-0.29914 0.26011445,0.26011445 0 0 0 -0.3833,0.142 l -0.83478,1.06233 a 2.3781892,2.3781892 0 0 1 -0.7071,0.65837 c 0,0 0,0 0,0 a 5.6110402,5.6110402 0 0 1 1.58089,-6.2133 6.5771795,6.5771795 0 0 1 2.78478,-1.468 12.18822,12.18822 0 0 1 3.8201,-0.38545 8.1007071,8.1007071 0 0 0 1.6661,-0.10225 36.676137,36.676137 0 0 0 6.69133,-1.72697 68.224305,68.224305 0 0 0 10.18177,-4.60581 c 1.0453,-0.38744 1.92659,-1.11035 2.98092,-1.58034 a 25.379738,25.379738 0 0 1 7.2398,-1.85106 28.055202,28.055202 0 0 1 3.06255,-0.18386 c 0.55237,-0.008 1.13057,0.0565 1.70486,0.002 a 10.144463,10.144463 0 0 0 1.97192,-0.45342 l 0.27871,-0.10341 c 0.0646,0.17421 0.10321,0.2787 -0.10187,0.47368 a 26.420196,26.420196 0 0 0 -1.11257,5.44523 8.2865031,8.2865031 0 0 0 0.026,2.52698 4.9421746,4.9421746 0 0 0 0.43906,1.18467 0.81750255,0.81750255 0 0 1 -0.40399,-0.12791 21.14359,21.14359 0 0 0 -7.35164,-1.8723 10.144463,10.144463 0 0 0 -4.84342,0.7251 8.1750255,8.1750255 0 0 0 -4.13028,4.14629 3.3814879,3.3814879 0 0 0 -0.31733,1.0687 12.671289,12.671289 0 0 0 -0.0154,3.49233 4.3104679,4.3104679 0 0 0 0.61986,1.67247 2.4525076,2.4525076 0 0 0 1.67027,1.08504 5.8711546,5.8711546 0 0 0 2.55792,-0.15531 18.208011,18.208011 0 0 0 5.64192,-2.52694 c 0.52264,-0.1936 0.89424,-0.68811 1.35231,-1.05602 a 1.1147762,1.1147762 0 0 1 0.45297,-0.16804 c -0.059,0.69565 -0.11846,1.39131 -0.13003,2.10886 a 11.147762,11.147762 0 0 0 0.65784,4.23429 6.5028613,6.5028613 0 0 0 0.85986,1.46463 c 0,0 -0.24376,0.0903 -0.34856,0.12926 a 41.804107,41.804107 0 0 0 -6.03999,-0.25825 9.3269609,9.3269609 0 0 0 -3.05989,0.61889 l -0.20921,0.0774 a 1.1890946,1.1890946 0 0 0 -0.51193,1.93342 c 1.76361,2.83377 3.52719,5.66753 5.32558,8.48835 1.05479,1.66979 2.19729,3.14857 3.36951,4.81446 a 33.443285,33.443285 0 0 1 3.08568,5.1178 18.356648,18.356648 0 0 1 1.16167,12.33009 19.657221,19.657221 0 0 1 -4.64416,8.85449 17.241872,17.241872 0 0 1 -7.74763,4.97177 17.687782,17.687782 0 0 1 -14.99322,-1.85381 14.863683,14.863683 0 0 1 -6.614,-16.13483 15.495389,15.495389 0 0 1 3.69608,-6.60089 12.522653,12.522653 0 0 1 5.54617,-3.64071 13.377315,13.377315 0 0 1 11.7163,1.24538 9.9958267,9.9958267 0 0 1 4.79753,7.8122 9.1040058,9.1040058 0 0 1 -3.57181,8.2193 5.5367219,5.5367219 0 0 1 -6.38186,0.42342 4.3847863,4.3847863 0 0 1 -2.05647,-2.44779 3.1956918,3.1956918 0 0 1 0.47173,-2.79036 1.8951196,1.8951196 0 0 1 2.23776,-0.59161 1.4492091,1.4492091 0 0 1 0.99142,1.17809 1.5235275,1.5235275 0 0 1 -0.56237,1.47657 5.5367219,5.5367219 0 0 1 -0.83624,0.3099 c -0.52264,0.1936 -0.52386,0.5112 -0.23855,0.96023 a 2.0809156,2.0809156 0 0 0 0.80163,0.77291 3.7159207,3.7159207 0 0 0 3.67044,0.0662 6.7629757,6.7629757 0 0 0 3.6588,-5.95302 8.5837769,8.5837769 0 0 0 -3.87997,-7.79562 10.887648,10.887648 0 0 0 -6.94253,-1.94467 11.593673,11.593673 0 0 0 -9.25755,5.17473 11.742309,11.742309 0 0 0 -2.3628,7.09752 12.448334,12.448334 0 0 0 2.58029,7.60359 12.63413,12.63413 0 0 0 9.79674,5.04792 13.748907,13.748907 0 0 0 4.57247,-0.3869 12.076742,12.076742 0 0 0 5.40046,-3.07153 16.089937,16.089937 0 0 0 4.57081,-7.8762 13.340155,13.340155 0 0 0 -1.75622,-10.40566 c -1.06769,-1.70464 -2.19217,-3.3486 -3.39926,-5.0016 -1.71311,-2.37688 -3.46111,-4.74087 -4.94327,-7.24298 a 22.89007,22.89007 0 0 0 -1.36714,-1.87109 32.254192,32.254192 0 0 1 -4.27618,-7.68838 20.140291,20.140291 0 0 1 -1.45384,-8.73443 14.863683,14.863683 0 0 1 1.28947,-5.07489 1.3377315,1.3377315 0 0 0 0.14566,-0.56917 z"
     id="path31"
     inkscape:connector-curvature="0"
     style="fill:#c32227;fill-rule:evenodd;stroke-width:3.71592069"
     inkscape:export-xdpi="96"
     inkscape:export-ydpi="96" />
  <path
     class="cls-3"
     d="m -407.90213,745.00913 1.3937,-0.51657 a 16.758802,16.758802 0 0 1 4.26913,-0.67075 33.926356,33.926356 0 0 1 8.15667,0.62283 1.6721643,1.6721643 0 0 0 0.92665,-0.0662 4.9793337,4.9793337 0 0 0 2.98069,-2.65023 2.861259,2.861259 0 0 0 0.28241,-1.05577 1.6721643,1.6721643 0 0 0 -1.42394,-1.81039 4.1618312,4.1618312 0 0 0 -1.18735,0.004 l -0.59233,0.21963 a 9.5870753,9.5870753 0 0 1 2.56425,-0.67297 3.7159207,3.7159207 0 0 1 1.97338,0.29913 0.26011445,0.26011445 0 0 0 0.38331,-0.14199 l 0.83477,-1.06236 a 2.3781892,2.3781892 0 0 1 0.7071,-0.65834 c 0,0 0,0 0,0 a 5.6110402,5.6110402 0 0 1 -1.46734,6.09191 6.5771795,6.5771795 0 0 1 -2.78479,1.46802 12.18822,12.18822 0 0 1 -3.82008,0.38545 8.1007071,8.1007071 0 0 0 -1.6661,0.10225 36.676137,36.676137 0 0 0 -6.69137,1.727 68.224305,68.224305 0 0 0 -10.18173,4.60577 c -1.0453,0.38742 -1.92663,1.11036 -2.98092,1.58035 a 25.379738,25.379738 0 0 1 -7.23984,1.85106 28.055202,28.055202 0 0 1 -3.06251,0.18386 c -0.55237,0.008 -1.13057,-0.0565 -1.70489,-0.002 a 10.144463,10.144463 0 0 0 -1.97189,0.45342 l -0.66203,0.24524 c -0.0646,-0.17421 -0.10341,-0.27868 0.10186,-0.47367 a 26.420196,26.420196 0 0 0 1.40031,-5.63118 8.2865031,8.2865031 0 0 0 -0.026,-2.52698 4.9421746,4.9421746 0 0 0 -0.43904,-1.18463 0.81750255,0.81750255 0 0 1 0.40397,0.12791 21.14359,21.14359 0 0 0 7.1645,1.90203 10.144463,10.144463 0 0 0 4.84346,-0.72511 8.1750255,8.1750255 0 0 0 4.13024,-4.14632 3.3814879,3.3814879 0 0 0 0.31735,-1.06866 12.671289,12.671289 0 0 0 0.0154,-3.49233 4.3104679,4.3104679 0 0 0 -0.61985,-1.6725 2.4525076,2.4525076 0 0 0 -1.67027,-1.08501 5.8711546,5.8711546 0 0 0 -2.55793,0.15531 18.208011,18.208011 0 0 0 -5.64192,2.52694 c -0.52264,0.1936 -0.8942,0.68811 -1.3523,1.05603 a 1.1147762,1.1147762 0 0 1 -0.45294,0.16804 c 0.059,-0.69562 0.11846,-1.39128 0.12965,-2.10883 a 11.147762,11.147762 0 0 0 -0.65786,-4.23429 6.5028613,6.5028613 0 0 0 -0.85986,-1.46463 c 0,0 0.24376,-0.0903 0.34854,-0.12926 a 41.804107,41.804107 0 0 0 6.19746,0.0413 9.3269609,9.3269609 0 0 0 3.05984,-0.61889 l 0.20921,-0.0774 a 1.1890946,1.1890946 0 0 0 0.51194,-1.93344 c -1.76357,-2.83375 -3.52716,-5.66748 -5.32559,-8.48835 -1.05477,-1.66978 -2.19726,-3.14853 -3.36953,-4.81442 a 33.443285,33.443285 0 0 1 -3.08562,-5.11782 18.356648,18.356648 0 0 1 -1.16171,-12.33005 19.657221,19.657221 0 0 1 4.6442,-8.85453 17.241872,17.241872 0 0 1 7.74759,-4.97179 17.687782,17.687782 0 0 1 14.99324,1.85384 14.863683,14.863683 0 0 1 6.64883,16.12194 15.495389,15.495389 0 0 1 -3.69608,6.60089 12.522653,12.522653 0 0 1 -5.54615,3.64071 13.377315,13.377315 0 0 1 -11.7163,-1.24541 9.9958267,9.9958267 0 0 1 -4.79756,-7.8122 9.1040058,9.1040058 0 0 1 3.59642,-7.83211 5.5367219,5.5367219 0 0 1 6.38191,-0.42343 4.3847863,4.3847863 0 0 1 1.96483,2.5214 3.1956918,3.1956918 0 0 1 -0.47174,2.79036 1.8951196,1.8951196 0 0 1 -2.16029,0.80063 1.4492091,1.4492091 0 0 1 -0.99139,-1.17809 1.5235275,1.5235275 0 0 1 0.56236,-1.47657 5.5367219,5.5367219 0 0 1 0.83623,-0.3099 c 0.52264,-0.1936 0.52387,-0.5112 0.23857,-0.96027 a 2.0809156,2.0809156 0 0 0 -0.80161,-0.77287 3.7159207,3.7159207 0 0 0 -3.67048,-0.0662 6.7629757,6.7629757 0 0 0 -3.70264,6.04852 8.5837769,8.5837769 0 0 0 3.87994,7.79562 10.887648,10.887648 0 0 0 6.94252,1.94465 11.593673,11.593673 0 0 0 9.25759,-5.17475 11.742309,11.742309 0 0 0 2.33303,-7.2846 12.448334,12.448334 0 0 0 -2.58024,-7.60361 12.63413,12.63413 0 0 0 -9.79675,-5.04792 13.748907,13.748907 0 0 0 -4.57247,0.3869 12.076742,12.076742 0 0 0 -5.40046,3.07155 16.089937,16.089937 0 0 0 -4.57081,7.87618 13.340155,13.340155 0 0 0 1.7343,10.45341 c 1.0677,1.70465 2.19218,3.3486 3.39921,5.0016 1.71315,2.37688 3.46117,4.74087 4.94329,7.24298 a 22.89007,22.89007 0 0 0 1.36716,1.87109 32.254192,32.254192 0 0 1 4.27613,7.68838 20.140291,20.140291 0 0 1 1.45387,8.73443 14.863683,14.863683 0 0 1 -1.28947,5.07487 1.3377315,1.3377315 0 0 0 -0.0835,0.30842 z"
     id="path33"
     inkscape:connector-curvature="0"
     style="fill:#c32227;fill-rule:evenodd;stroke-width:3.71592069"
     inkscape:export-xdpi="96"
     inkscape:export-ydpi="96" />
</svg>
