<?xml version="1.0" encoding="UTF-8" standalone="no"?>
<!-- Generator: Adobe Illustrator 21.0.0, SVG Export Plug-In . SVG Version: 6.00 Build 0)  -->

<svg
   xmlns:dc="http://purl.org/dc/elements/1.1/"
   xmlns:cc="http://creativecommons.org/ns#"
   xmlns:rdf="http://www.w3.org/1999/02/22-rdf-syntax-ns#"
   xmlns:svg="http://www.w3.org/2000/svg"
   xmlns="http://www.w3.org/2000/svg"
   xmlns:sodipodi="http://sodipodi.sourceforge.net/DTD/sodipodi-0.dtd"
   xmlns:inkscape="http://www.inkscape.org/namespaces/inkscape"
   version="1.1"
   id="Calque_1"
   x="0px"
   y="0px"
   viewBox="0 0 379.5 381.7"
   style="enable-background:new 0 0 379.5 381.7;"
   xml:space="preserve"
   sodipodi:docname="fond_place.svg"
   inkscape:version="0.92.1 r15371"><metadata
     id="metadata137"><rdf:RDF><cc:Work
         rdf:about=""><dc:format>image/svg+xml</dc:format><dc:type
           rdf:resource="http://purl.org/dc/dcmitype/StillImage" /><dc:title></dc:title></cc:Work></rdf:RDF></metadata><defs
     id="defs135" /><sodipodi:namedview
     pagecolor="#ffffff"
     bordercolor="#666666"
     borderopacity="1"
     objecttolerance="10"
     gridtolerance="10"
     guidetolerance="10"
     inkscape:pageopacity="0"
     inkscape:pageshadow="2"
     inkscape:window-width="1920"
     inkscape:window-height="1021"
     id="namedview133"
     showgrid="false"
     inkscape:zoom="0.61828659"
     inkscape:cx="-145.0462"
     inkscape:cy="245.96844"
     inkscape:window-x="1920"
     inkscape:window-y="0"
     inkscape:window-maximized="1"
     inkscape:current-layer="Calque_1" /><style
     type="text/css"
     id="style2">
	.st0{fill:#25201E;}
	.st1{fill:none;}
	.st2{fill:#C32227;}
</style><g
     id="g151"><path
       id="path4"
       d="M160.2,47.1c-4.8,2.7-8.7,6.9-11,11.9c-2.3,5-3,10.6-2.3,16c0.4,2.7,1.1,5.3,2.3,7.7c1.2,2.5,2.6,4.8,4.3,6.9  c3.4,4.3,7.8,7.7,12.8,9.9c2.5,1.1,5.1,1.9,7.8,2.4c2.7,0.5,5.4,0.6,8.1,0.5c2.7-0.1,5.4-0.6,7.9-1.4c2.6-0.8,5-1.9,7.3-3.4  c4.6-2.9,8.4-6.9,11.1-11.5c2.8-4.6,4.5-9.8,5.3-15.2c0.8-5.4,0.8-10.9-0.1-16.2c-0.2-1.3-0.5-2.6-0.9-3.9c-0.4-1.3-0.8-2.5-1.4-3.7  c-1.1-2.4-2.5-4.7-4.1-6.8c-3.2-4.2-7.4-7.8-12.1-10.1c-2.4-1.2-4.8-1.9-7.5-2.5c-2.6-0.5-5.3-0.9-8-1.1c-5.4-0.4-11-0.2-16.3,0.5  c-5.4,0.8-10.8,2-16.1,3.4c-10.6,2.9-20.9,7-30.6,12.3C97.2,53.2,80.3,68.1,67.4,85.8c-13,17.8-22,38.4-26.2,59.9  c-2.1,10.8-3,21.7-2.8,32.7c0.2,11,1.7,21.9,4.3,32.5c5.2,21.2,15.2,41.3,29,58.2c13.7,16.9,31.2,30.8,50.8,40.2  c19.6,9.5,41.3,14.4,62.9,14.6c10.8,0.1,21.7-0.9,32.3-3.1c10.6-2.2,20.9-5.6,30.8-10c9.9-4.4,19.2-10,28-16.4  c8.7-6.5,16.7-13.9,23.8-22c14.3-16.3,25-35.8,31-56.8c3-10.5,4.9-21.3,5.6-32.2c0.7-10.9,0.2-21.9-1.4-32.7  c-3.3-21.6-11.4-42.7-23.7-61c-6.1-9.2-13.2-17.8-21.2-25.5c-4-3.9-8.2-7.5-12.6-10.9c-4.4-3.4-9-6.6-13.7-9.6  c-0.2-0.1-0.3-0.5-0.2-0.7c0.1-0.2,0.4-0.3,0.7-0.2c19.8,10.7,37.2,26,50.6,44.4c13.4,18.4,22.7,39.9,26.8,62.4  c2,11.3,2.9,22.8,2.5,34.3c-0.4,11.5-2.2,22.9-5.1,34.1c-5.9,22.3-17,43.2-31.9,60.9c-15,17.6-33.9,32-55,41.5  c-21.1,9.6-44.4,14.1-67.6,13.6c-23.1-0.4-46.1-6.2-66.8-16.5c-20.6-10.3-39-25.2-53.2-43.2c-14.3-18-24.6-39.2-29.8-61.6  c-2.6-11.2-4-22.6-4.1-34.1c-0.1-11.5,1-22.9,3.3-34.1c4.6-22.4,14.3-43.8,27.9-62.1C76.2,64,94,48.7,114.2,38.1  c10.1-5.3,20.8-9.5,31.8-12.3c5.5-1.4,11.1-2.5,16.8-3.3c5.8-0.6,11.5-0.7,17.2-0.3c2.9,0.2,5.7,0.6,8.6,1.3  c2.8,0.6,5.8,1.6,8.4,2.9c5.3,2.7,9.8,6.8,13.3,11.5c1.7,2.4,3.3,4.9,4.4,7.6c0.6,1.4,1.1,2.8,1.5,4.2c0.4,1.4,0.7,2.9,0.9,4.3  c0.9,5.8,0.8,11.6-0.1,17.3c-1,5.7-2.9,11.3-6,16.2c-3.1,5-7.3,9.2-12.2,12.3c-2.4,1.5-5.2,2.8-8,3.6c-2.8,0.8-5.7,1.3-8.6,1.4  c-2.9,0.1-5.8-0.1-8.6-0.7c-2.8-0.6-5.6-1.5-8.2-2.7c-5.3-2.4-9.9-6.1-13.4-10.7c-1.8-2.3-3.2-4.8-4.4-7.4c-1.3-2.6-2-5.5-2.3-8.3  c-0.6-5.7,0.3-11.6,2.8-16.8c2.5-5.2,6.7-9.5,11.7-12.2c0.2-0.1,0.5,0,0.7,0.2C160.5,46.6,160.4,46.9,160.2,47.1z"
       class="st0" /><g
       id="g10"><ellipse
         id="ellipse6"
         ry="9.2"
         rx="11.7"
         cy="54.1"
         cx="164.4"
         class="st0"
         transform="matrix(0.9185 -0.3954 0.3954 0.9185 -7.9938 69.4015)" /><path
         id="path8"
         d="M175.1,49.5c1.1,2.6,0.6,5.6-0.8,7.9c-1.4,2.4-3.6,4.2-6.2,5.4c-2.6,1.1-5.4,1.6-8.2,1   c-1.4-0.3-2.7-0.8-3.9-1.7c-1.2-0.8-2.1-2-2.7-3.3c-0.6-1.3-0.8-2.8-0.6-4.2c0.2-1.4,0.7-2.8,1.4-4c1.5-2.5,3.8-4.3,6.4-5.4   c2.6-1.1,5.6-1.4,8.3-0.7C171.5,45.1,174.1,46.9,175.1,49.5z M175,49.5c-0.6-1.2-1.5-2.3-2.6-3.1c-1.1-0.8-2.4-1.2-3.7-1.5   c-2.6-0.4-5.4,0-7.8,1.1c-2.4,1.1-4.6,2.8-6,5c-1.4,2.2-1.9,5-0.9,7.5c1,2.4,3.4,4.1,6,4.6c2.6,0.6,5.4,0.2,7.9-0.8   c2.5-1,4.7-2.8,6.2-5.1c0.7-1.1,1.2-2.4,1.4-3.8C175.7,52.2,175.6,50.8,175,49.5z"
         class="st0" /></g><g
       id="g128"><path
         id="path122"
         d="M56.4,116.3c3.2-7.1,7-13.9,11.3-20.5c6.2-9.5,13.5-18.4,21.5-26.5c4-4,8.2-7.9,12.7-11.5   c1.1-0.9,2.2-1.8,3.4-2.7l3.4-2.6c1.2-0.8,2.3-1.7,3.5-2.5c1.2-0.9,2.5-1.6,3.8-2.4c5-3,10.2-5.6,15.5-7.8   c5.3-2.2,10.9-4.1,16.6-5.3c5.7-1.3,11.6-2.1,17.7-1.9c6,0.2,12.2,1.5,17.8,4.5c5.6,2.9,10.1,7.6,13.2,12.8c3,5.2,5,11.2,4.8,17.4   c-0.1,6.1-2.4,12.2-6.7,16.4c-2.1,2.1-4.6,3.7-7.3,4.8c-2.7,1.1-5.5,1.6-8.3,1.7c5.4-1.2,10.4-4.1,13.5-8.3c0.8-1.1,1.4-2.2,2-3.3   c0.5-1.2,1-2.4,1.3-3.6c0.6-2.5,0.8-5,0.5-7.5c-0.2-2.5-0.9-5-1.8-7.3c-0.9-2.3-2.2-4.6-3.6-6.7c-2.9-4.1-6.7-7.4-11.1-9.4   c-4.4-2-9.4-2.8-14.5-2.8c-5.1,0.1-10.2,0.9-15.3,2.2c-10.1,2.7-20.1,7.1-29.2,12.5c-1.1,0.7-2.2,1.4-3.3,2.1l-3.3,2.3l-3.2,2.4   l-3.2,2.5c-4.2,3.4-8.3,6.9-12.2,10.7c-7.8,7.4-15.1,15.6-21.6,24.2c-3.1,4.1-6,8.3-8.7,12.6L56.4,116.3z"
         class="st2" /><path
         id="path124"
         d="M192.6,47c-1.9-0.3-3.6-0.9-5.2-1.5c-1.6-0.7-3.1-1.5-4.6-2.4c-1.5-0.9-2.8-2-4.2-3.2c-0.7-0.6-1.4-1.3-2-2.3   c-0.3-0.5-0.6-1.1-0.9-1.7c-0.2-0.5-0.3-1.1-0.5-1.6c-0.5-2.1-0.3-4.1,0-6c0.3-1.9,0.7-3.6,0.9-5.4c0.2-1.7,0.4-3.4,0.5-5.2   c0.2-1.8,0.2-3.6,0.7-5.5c0.2-1,0.5-2,0.9-3c0.5-1,1-2,1.8-2.9c0.9-1,1.6-1.6,2.4-2.2c0.8-0.6,1.7-1.2,2.6-1.7   c1.8-1,3.9-1.8,6.2-2.1c2.3-0.4,4.7-0.2,7,0.6c2.3,0.8,4.4,2.2,5.9,3.9c0.8,0.9,1.5,1.8,2,2.8c0.1,0.2,0.3,0.5,0.4,0.7l0.4,0.9   c0.2,0.6,0.4,1.2,0.5,1.8c0.4,2.4,0.1,4.5-0.5,6.4c-0.7,1.9-1.7,3.6-3.2,4.9c-0.2,0.2-0.6,0.2-0.8-0.1c-0.1-0.1-0.1-0.2-0.1-0.3   l0,0c-0.2-1.8-0.5-3.3-1-4.7c-0.5-1.4-1.1-2.7-1.8-3.4c-0.2-0.2-0.3-0.3-0.5-0.4c-0.1,0-0.2-0.1-0.2-0.1c-0.1-0.1-0.2-0.2-0.3-0.3   c-0.4-0.4-0.9-0.6-1.3-0.9c-0.9-0.5-1.7-0.8-2.6-1c-0.9-0.2-1.8-0.3-2.8-0.4c-1,0-2.2,0.1-3.4,0.4c-0.6,0.1-1.2,0.4-1.8,0.6   c-0.6,0.3-1.3,0.5-1.6,0.7c-0.1,0-0.2,0.1-0.4,0.1c-0.1,0-0.2,0.1-0.4,0.2c-0.2,0.1-0.5,0.3-0.8,0.4c-0.5,0.4-1.1,0.8-1.5,1.4   c-1,1-1.8,2.4-2.3,3.9c-0.2,0.7-0.5,1.5-0.5,2.3c-0.1,0.4-0.1,0.8-0.1,1.2c0,0.4,0,0.8,0,1.2c0.2,3.2,2.2,6.2,3.6,8.2   c0.2,0.2,0.4,0.4,0.5,0.7c0.2,0.2,0.3,0.3,0.4,0.4l1.2,1.4c0.9,1.1,2,2.3,3,3.6c1,1.3,2,2.7,2.8,4.1c0.9,1.5,1.7,3,2.4,4.8l0,0   c0.1,0.3,0,0.6-0.4,0.7C192.7,47,192.6,47,192.6,47z"
         class="st2" /><path
         id="path126"
         d="M56.4,116.3c3.2-7.1,7-13.9,11.3-20.5c6.2-9.5,13.5-18.4,21.5-26.5c4-4,8.2-7.9,12.7-11.5   c1.1-0.9,2.2-1.8,3.4-2.7l3.4-2.6c1.2-0.8,2.3-1.7,3.5-2.5c1.2-0.9,2.5-1.6,3.8-2.4c5-3,10.2-5.6,15.5-7.8   c5.3-2.2,10.9-4.1,16.6-5.3c5.7-1.3,11.6-2.1,17.7-1.9c6,0.2,12.2,1.5,17.8,4.5c5.6,2.9,10.1,7.6,13.2,12.8c3,5.2,5,11.2,4.8,17.4   c-0.1,6.1-2.4,12.2-6.7,16.4c-2.1,2.1-4.6,3.7-7.3,4.8c-2.7,1.1-5.5,1.6-8.3,1.7c5.4-1.2,10.4-4.1,13.5-8.3c0.8-1.1,1.4-2.2,2-3.3   c0.5-1.2,1-2.4,1.3-3.6c0.6-2.5,0.8-5,0.5-7.5c-0.2-2.5-0.9-5-1.8-7.3c-0.9-2.3-2.2-4.6-3.6-6.7c-2.9-4.1-6.7-7.4-11.1-9.4   c-4.4-2-9.4-2.8-14.5-2.8c-5.1,0.1-10.2,0.9-15.3,2.2c-10.1,2.7-20.1,7.1-29.2,12.5c-1.1,0.7-2.2,1.4-3.3,2.1l-3.3,2.3l-3.2,2.4   l-3.2,2.5c-4.2,3.4-8.3,6.9-12.2,10.7c-7.8,7.4-15.1,15.6-21.6,24.2c-3.1,4.1-6,8.3-8.7,12.6L56.4,116.3z"
         class="st2" /></g></g></svg>