<?xml version="1.0" encoding="utf-8"?>
<!-- Generator: Adobe Illustrator 21.0.0, SVG Export Plug-In . SVG Version: 6.00 Build 0)  -->
<svg version="1.1" id="Calque_1" xmlns="http://www.w3.org/2000/svg" xmlns:xlink="http://www.w3.org/1999/xlink" x="0px" y="0px"
	 viewBox="0 0 17.7 18.9" style="enable-background:new 0 0 17.7 18.9;" xml:space="preserve">
<style type="text/css">
	.st0{fill-rule:evenodd;clip-rule:evenodd;fill:#FFFFFF;}
</style>
<path class="st0" d="M8.7,0c1.9,1.5,3.7,3,5.5,4.5c2.4,1.8,3.8,4,3.4,7.1c-0.4,3.3-3.7,5.1-6.6,3.4c-0.4-0.2-0.8-0.5-1.4-0.9
	c0.7,1.6,1.3,3,2,4.7C9.7,17.8,8,17.7,6,18.9c0.7-1.7,1.4-3.1,2-4.7c-0.9,0.4-1.6,0.9-2.4,1.1c-3,0.8-5.5-1-5.7-4.1
	c-0.2-2.7,0.9-4.9,3-6.5C4.7,3.6,6.2,2.3,7.8,1C8.2,0.7,8.5,0.2,8.7,0z"/>
</svg>
