<?xml version="1.0" encoding="utf-8"?>
<!-- Generator: Adobe Illustrator 21.0.0, SVG Export Plug-In . SVG Version: 6.00 Build 0)  -->
<svg version="1.1" id="Calque_1" xmlns="http://www.w3.org/2000/svg" xmlns:xlink="http://www.w3.org/1999/xlink" x="0px" y="0px"
	 viewBox="0 0 18.6 18.9" style="enable-background:new 0 0 18.6 18.9;" xml:space="preserve">
<style type="text/css">
	.st0{fill-rule:evenodd;clip-rule:evenodd;fill:#FFFFFF;}
</style>
<path class="st0" d="M13.4,6.3c2.5,0.1,4.3,1.2,5,3.6c0.5,1.9-0.3,4-1.9,5c-2,1.3-3.8,1.1-6.5-0.9c0.7,1.7,1.4,3.1,2.1,4.9
	c-1.9-1.2-3.7-1.2-5.6-0.3c0.6-1.4,1.2-2.8,1.8-4.2c-2,1.6-4.1,2-6.3,0.6c-1.6-1.1-2.3-2.7-2-4.6c0.4-2.4,2-3.6,4.3-4
	C3.9,4,4.4,2,6.5,0.7c1.7-1,3.4-0.9,5,0.2C13.4,2.2,14,4,13.4,6.3z"/>
</svg>
