<?xml version="1.0" encoding="utf-8"?>
<!-- Generator: Adobe Illustrator 21.0.0, SVG Export Plug-In . SVG Version: 6.00 Build 0)  -->
<svg version="1.1" id="Calque_1" xmlns="http://www.w3.org/2000/svg" xmlns:xlink="http://www.w3.org/1999/xlink" x="0px" y="0px"
	 viewBox="0 0 379.5 381.7" style="enable-background:new 0 0 379.5 381.7;" xml:space="preserve">
<style type="text/css">
	.st0{fill:#C32227;}
	.st1{fill:#401F1F;}
	.st2{fill:none;}
</style>
<g>
	<g>
		<path class="st0" d="M179.2,90.3c5.4-1.2,10.4-4.1,13.5-8.3c0.8-1.1,1.4-2.2,2-3.3c0.5-1.2,1-2.4,1.3-3.6c0.6-2.5,0.8-5,0.5-7.5
			c-0.2-2.5-0.9-5-1.8-7.3c-0.9-2.3-2.2-4.6-3.6-6.7c-2.9-4.1-6.7-7.4-11.1-9.4c-4.4-2-9.4-2.8-14.5-2.8c-5.1,0.1-10.2,0.9-15.3,2.2
			c-10.1,2.7-20.1,7.1-29.2,12.5c-1.1,0.7-2.2,1.4-3.3,2.1l-3.3,2.3l-3.2,2.4l-3.2,2.5c-4.2,3.4-8.3,6.9-12.2,10.7
			c-7.8,7.4-15.1,15.6-21.6,24.2c-6.5,8.7-12.4,17.9-17.2,27.7c-4.9,9.8-8.6,20.2-10.9,31.1c0-11.2,2.5-22.4,6.2-33.1
			c3.8-10.7,9-20.9,15.3-30.4c6.2-9.5,13.5-18.4,21.5-26.5c4-4,8.2-7.9,12.7-11.5c1.1-0.9,2.2-1.8,3.4-2.7l3.4-2.6
			c1.2-0.8,2.3-1.7,3.5-2.5c1.2-0.9,2.5-1.6,3.8-2.4c5-3,10.2-5.6,15.5-7.8c5.3-2.2,10.9-4.1,16.6-5.3c5.7-1.3,11.6-2.1,17.7-1.9
			c6,0.2,12.2,1.5,17.8,4.5c5.6,2.9,10.1,7.6,13.2,12.8c3,5.2,5,11.2,4.8,17.4c-0.1,6.1-2.4,12.2-6.7,16.4c-2.1,2.1-4.6,3.7-7.3,4.8
			C184.9,89.7,182,90.2,179.2,90.3z"/>
		<path class="st0" d="M192.6,47c-1.9-0.3-3.6-0.9-5.2-1.5c-1.6-0.7-3.1-1.5-4.6-2.4c-1.5-0.9-2.8-2-4.2-3.2c-0.7-0.6-1.4-1.3-2-2.3
			c-0.3-0.5-0.6-1.1-0.9-1.7c-0.2-0.5-0.3-1.1-0.5-1.6c-0.5-2.1-0.3-4.1,0-6c0.3-1.9,0.7-3.6,0.9-5.4c0.2-1.7,0.4-3.4,0.5-5.2
			c0.2-1.8,0.2-3.6,0.7-5.5c0.2-1,0.5-2,0.9-3c0.5-1,1-2,1.8-2.9c0.9-1,1.6-1.6,2.4-2.2c0.8-0.6,1.7-1.2,2.6-1.7
			c1.8-1,3.9-1.8,6.2-2.1c2.3-0.4,4.7-0.2,7,0.6c2.3,0.8,4.4,2.2,5.9,3.9c0.8,0.9,1.5,1.8,2,2.8c0.1,0.2,0.3,0.5,0.4,0.7l0.4,0.9
			c0.2,0.6,0.4,1.2,0.5,1.8c0.4,2.4,0.1,4.5-0.5,6.4c-0.7,1.9-1.7,3.6-3.2,4.9c-0.2,0.2-0.6,0.2-0.8-0.1c-0.1-0.1-0.1-0.2-0.1-0.3
			l0,0c-0.2-1.8-0.5-3.3-1-4.7c-0.5-1.4-1.1-2.7-1.8-3.4c-0.2-0.2-0.3-0.3-0.5-0.4c-0.1,0-0.2-0.1-0.2-0.1c-0.1-0.1-0.2-0.2-0.3-0.3
			c-0.4-0.4-0.9-0.6-1.3-0.9c-0.9-0.5-1.7-0.8-2.6-1c-0.9-0.2-1.8-0.3-2.8-0.4c-1,0-2.2,0.1-3.4,0.4c-0.6,0.1-1.2,0.4-1.8,0.6
			c-0.6,0.3-1.3,0.5-1.6,0.7c-0.1,0-0.2,0.1-0.4,0.1c-0.1,0-0.2,0.1-0.4,0.2c-0.2,0.1-0.5,0.3-0.8,0.4c-0.5,0.4-1.1,0.8-1.5,1.4
			c-1,1-1.8,2.4-2.3,3.9c-0.2,0.7-0.5,1.5-0.5,2.3c-0.1,0.4-0.1,0.8-0.1,1.2c0,0.4,0,0.8,0,1.2c0.2,3.2,2.2,6.2,3.6,8.2
			c0.2,0.2,0.4,0.4,0.5,0.7c0.2,0.2,0.3,0.3,0.4,0.4l1.2,1.4c0.9,1.1,2,2.3,3,3.6c1,1.3,2,2.7,2.8,4.1c0.9,1.5,1.7,3,2.4,4.8l0,0
			c0.1,0.3,0,0.6-0.4,0.7C192.7,47,192.6,47,192.6,47z"/>
	</g>
	<path class="st1" d="M160.2,47.1c-4.8,2.7-8.7,6.9-11,11.9c-2.3,5-3,10.6-2.3,16c0.4,2.7,1.1,5.3,2.3,7.7c1.2,2.5,2.6,4.8,4.3,6.9
		c3.4,4.3,7.8,7.7,12.8,9.9c2.5,1.1,5.1,1.9,7.8,2.4c2.7,0.5,5.4,0.6,8.1,0.5c2.7-0.1,5.4-0.6,7.9-1.4c2.6-0.8,5-1.9,7.3-3.4
		c4.6-2.9,8.4-6.9,11.1-11.5c2.8-4.6,4.5-9.8,5.3-15.2c0.8-5.4,0.8-10.9-0.1-16.2c-0.2-1.3-0.5-2.6-0.9-3.9
		c-0.4-1.3-0.8-2.5-1.4-3.7c-1.1-2.4-2.5-4.7-4.1-6.8c-3.2-4.2-7.4-7.8-12.1-10.1c-2.4-1.2-4.8-1.9-7.5-2.5c-2.6-0.5-5.3-0.9-8-1.1
		c-5.4-0.4-11-0.2-16.3,0.5c-5.4,0.8-10.8,2-16.1,3.4c-10.6,2.9-20.9,7-30.6,12.3C97.2,53.2,80.3,68.1,67.4,85.8
		c-13,17.8-22,38.4-26.2,59.9c-2.1,10.8-3,21.7-2.8,32.7c0.2,11,1.7,21.9,4.3,32.5c5.2,21.2,15.2,41.3,29,58.2
		c13.7,16.9,31.2,30.8,50.8,40.2c19.6,9.5,41.3,14.4,62.9,14.6c10.8,0.1,21.7-0.9,32.3-3.1c10.6-2.2,20.9-5.6,30.8-10
		c9.9-4.4,19.2-10,28-16.4c8.7-6.5,16.7-13.9,23.8-22c14.3-16.3,25-35.8,31-56.8c3-10.5,4.9-21.3,5.6-32.2
		c0.7-10.9,0.2-21.9-1.4-32.7c-3.3-21.6-11.4-42.7-23.7-61c-6.1-9.2-13.2-17.8-21.2-25.5c-4-3.9-8.2-7.5-12.6-10.9
		c-4.4-3.4-9-6.6-13.7-9.6c-0.2-0.1-0.3-0.5-0.2-0.7c0.1-0.2,0.4-0.3,0.7-0.2c19.8,10.7,37.2,26,50.6,44.4
		c13.4,18.4,22.7,39.9,26.8,62.4c2,11.3,2.9,22.8,2.5,34.3c-0.4,11.5-2.2,22.9-5.1,34.1c-5.9,22.3-17,43.2-31.9,60.9
		c-15,17.6-33.9,32-55,41.5c-21.1,9.6-44.4,14.1-67.6,13.6c-23.1-0.4-46.1-6.2-66.8-16.5c-20.6-10.3-39-25.2-53.2-43.2
		c-14.3-18-24.6-39.2-29.8-61.6c-2.6-11.2-4-22.6-4.1-34.1c-0.1-11.5,1-22.9,3.3-34.1c4.6-22.4,14.3-43.8,27.9-62.1
		C76.2,64,94,48.7,114.2,38.1c10.1-5.3,20.8-9.5,31.8-12.3c5.5-1.4,11.1-2.5,16.8-3.3c5.8-0.6,11.5-0.7,17.2-0.3
		c2.9,0.2,5.7,0.6,8.6,1.3c2.8,0.6,5.8,1.6,8.4,2.9c5.3,2.7,9.8,6.8,13.3,11.5c1.7,2.4,3.3,4.9,4.4,7.6c0.6,1.4,1.1,2.8,1.5,4.2
		c0.4,1.4,0.7,2.9,0.9,4.3c0.9,5.8,0.8,11.6-0.1,17.3c-1,5.7-2.9,11.3-6,16.2c-3.1,5-7.3,9.2-12.2,12.3c-2.4,1.5-5.2,2.8-8,3.6
		c-2.8,0.8-5.7,1.3-8.6,1.4c-2.9,0.1-5.8-0.1-8.6-0.7c-2.8-0.6-5.6-1.5-8.2-2.7c-5.3-2.4-9.9-6.1-13.4-10.7
		c-1.8-2.3-3.2-4.8-4.4-7.4c-1.3-2.6-2-5.5-2.3-8.3c-0.6-5.7,0.3-11.6,2.8-16.8c2.5-5.2,6.7-9.5,11.7-12.2c0.2-0.1,0.5,0,0.7,0.2
		C160.5,46.6,160.4,46.9,160.2,47.1z"/>
	<ellipse transform="matrix(0.9185 -0.3954 0.3954 0.9185 -7.9938 69.4015)" class="st1" cx="164.4" cy="54.1" rx="11.7" ry="9.2"/>
	<g>
		<path class="st2" d="M196.8,185.1"/>
	</g>
	<g>
		<path class="st2" d="M186.9,212.4"/>
	</g>
	<g id="Illustration_8_2_">
		<defs>
			<rect id="SVGID_1_" x="34.9" y="27.7" width="376" height="354"/>
		</defs>
		<clipPath id="SVGID_2_">
			<use xlink:href="#SVGID_1_"  style="overflow:visible;"/>
		</clipPath>
		<g style="clip-path:url(#SVGID_2_);">
			
				<image style="overflow:visible;" width="376" height="354" id="Illustration_9__x2B__Illustration_8" xlink:href="220C1109.png"  transform="matrix(1 0 0 1 34.8547 27.6625)">
			</image>
		</g>
	</g>
	<path class="st1" d="M66.2,268.6c16.2,17.7,35.5,31.8,56.8,41.3c21.3,9.5,44.4,14.4,67.5,14c23.1-0.3,46.1-5.8,67.1-16
		c21-10.2,39.7-25.1,55.3-43.3c-12.2,20.7-30.3,38.2-51.6,50.3c-21.3,12.1-45.9,18.8-70.6,19.1c-24.7,0.5-49.4-5.5-71.1-16.9
		C97.9,305.6,79.1,288.9,66.2,268.6z"/>
</g>
<g>
	<g>
		<path class="st0" d="M10.7,188.1l0,2l0,0.4c0,1.1-0.5,1.7-1.4,1.8c-0.6,0-1.1-0.2-1.6-0.7s-0.7-1-0.7-1.7l0-0.4L7,186.7l-7.4-2.8
			c-5.1-2-7.7-5-7.8-9c0-2.1,0.6-3.9,1.9-5.3c1.3-1.4,3.1-2.2,5.1-2.2c1.6,0,3.2,0.3,4.7,1.1s2.8,1.9,3.9,3.4
			c0.9,1.2,1.7,2.7,2.2,4.4c0.6,1.7,0.9,3.3,0.9,4.9l0.1,2.2l0,0.7l7.5,2.8l0.4,0.2c0.6,0.2,1.1,0.5,1.3,0.9c0.2,0.4,0.3,1,0.4,1.8
			l0.2,7.9c0,1.4-0.5,2.1-1.5,2.2c-0.6,0-1.1-0.2-1.5-0.7c-0.4-0.5-0.7-1-0.7-1.7l0-0.4l-0.1-6.6L10.7,188.1z M6.9,182.6l0-0.8
			c-0.1-3-0.8-5.4-2.2-7.2c-1.6-2-3.4-3-5.3-2.9c-1,0-1.9,0.4-2.6,1s-1,1.5-1,2.4c0,2.2,1.8,4,5.4,5.4L6.9,182.6z"/>
		<path class="st1" d="M4.8,199.5c-0.8,0.1-1.1,0.7-0.9,1.9l0.6,4.5c0.2,1.3-0.2,2-1.1,2.1c-0.6,0.1-1.1-0.1-1.5-0.5
			c-0.4-0.4-0.7-1-0.8-1.8l-0.6-4.3c-0.2-1.6,0-2.9,0.7-3.8c0.7-0.9,1.8-1.5,3.3-1.7c2-0.3,3.7,0.2,5.3,1.3s2.5,2.6,2.7,4.5
			c0.2,1.3,0,2.4-0.6,3.3c-0.6,0.9-1.5,1.4-2.6,1.6c-1.4,0.2-2.5-0.3-3.3-1.3c-0.5-0.6-0.8-1.5-0.9-2.7L4.8,199.5z M7.7,199.9
			l0.2,1.7c0.1,1.1,0.4,1.6,0.9,1.5c0.5-0.1,0.8-0.5,0.7-1.2C9.4,201,8.8,200.3,7.7,199.9z"/>
		<path class="st1" d="M10.2,213.3l-0.8-0.1c-1.1-0.2-1.7-0.8-1.9-1.6c-0.1-0.4,0-0.8,0.2-1.2s0.5-0.6,0.9-0.7
			c0.4-0.1,0.8,0,1.5,0.2l4.5,1.2c1.1,0.3,1.7,0.8,1.8,1.5c0.1,0.4,0,0.8-0.2,1.1c-0.2,0.3-0.5,0.5-0.8,0.6c-0.1,0-0.3,0-0.6,0
			c-0.2,0-0.4,0-0.6,0.1c-0.6,0.1-1.2,0.5-1.8,1.1l-1,1.1c-1,1.1-2.1,1.8-3.3,2c-1.3,0.3-2.4,0-3.5-0.8c-1-0.8-1.7-1.9-2-3.3
			l-0.6-3.2c-0.3-1.3,0.1-2,0.9-2.2c0.6-0.1,1.1,0,1.6,0.4s0.7,1,0.9,1.8l0.3,1.8c0.3,1.4,0.9,2,1.9,1.8c0.4-0.1,0.8-0.3,1.2-0.7
			L10.2,213.3z"/>
		<path class="st1" d="M17.5,225.7l0.1,0.5c0.3,1.3,0.1,2-0.8,2.2c-0.6,0.2-1.1,0.1-1.6-0.3c-0.5-0.4-0.8-0.9-1-1.7l-0.3-1.1
			l-5.4-0.7l0.4,1.7c0.3,1.3,0.1,2-0.8,2.2c-0.6,0.2-1.1,0.1-1.6-0.3c-0.5-0.4-0.8-0.9-1-1.7l-0.7-2.7c-0.2-0.8-0.2-1.4,0.1-1.9
			c0.2-0.5,0.6-0.9,1.2-1c0.4-0.1,0.8-0.1,1.3-0.1l0.7,0.1l4.8,0.6l-0.1-0.2c-0.3-1.1,0-1.8,0.9-2c0.6-0.2,1.2-0.1,1.6,0.3
			c0.5,0.4,0.8,0.9,1,1.7l0.2,0.7l2.2,0.3l0.4,0.1c1.2,0.2,2,0.8,2.2,1.8c0.1,0.4,0.1,0.8-0.1,1.2c-0.2,0.4-0.5,0.6-0.9,0.7
			c-0.4,0.1-0.9,0.1-1.5,0L17.5,225.7z"/>
		<path class="st1" d="M11.3,234.1l0.5,1.7c0.4,1.2,0.2,2-0.7,2.3c-0.6,0.2-1.1,0.1-1.6-0.2c-0.5-0.3-0.8-0.9-1.1-1.7l-0.7-2.3
			c-0.3-0.9-0.3-1.6-0.1-2.2c0.2-0.6,0.6-1,1.2-1.2c0.3-0.1,0.8-0.1,1.3-0.1l6.7,0.5l0.5,0c1.2,0.1,2,0.6,2.3,1.6
			c0.1,0.4,0.1,0.8-0.1,1.2c-0.2,0.4-0.5,0.6-0.8,0.8c-0.3,0.1-0.8,0.1-1.6,0.1L11.3,234.1z M24.6,232c0.2,0.6,0.1,1.1-0.1,1.6
			c-0.3,0.5-0.7,0.9-1.3,1.1c-0.6,0.2-1.1,0.1-1.6-0.1c-0.5-0.3-0.9-0.7-1.1-1.3c-0.2-0.6-0.1-1.1,0.1-1.6c0.3-0.5,0.7-0.9,1.3-1.1
			c0.6-0.2,1.1-0.1,1.6,0.1S24.5,231.5,24.6,232z"/>
		<path class="st1" d="M16.1,241.6l5.8,1.6l0.5,0.1c1,0.3,1.7,0.7,1.9,1.4c0.2,0.5,0.2,0.9,0,1.3c-0.2,0.4-0.5,0.7-0.9,0.8
			c-0.5,0.2-1.2,0.1-2.2-0.2l-8.9-2.7c-1-0.3-1.7-0.9-2-1.7c-0.3-0.7-0.2-1.3,0.1-1.9s0.9-1,1.7-1.3c0.2-0.1,0.3-0.1,0.4-0.1
			l5.9-1.7c0.8-0.2,1.5-0.2,2,0c0.5,0.2,0.9,0.6,1.1,1.2c0.3,0.9,0.1,1.5-0.9,1.9c-0.1,0.1-0.4,0.1-0.7,0.2L16.1,241.6z"/>
		<path class="st1" d="M21.3,258.7l0.7,1.5c0.5,1.2,0.4,1.9-0.4,2.3c-0.6,0.3-1.1,0.3-1.6,0c-0.5-0.3-0.9-0.8-1.3-1.5l-0.8-1.8
			c-0.4-0.8-0.3-1.5,0.2-2.1c-0.9-0.4-1.6-0.9-1.9-1.6l-0.7-1.6c-0.5-1-0.5-2-0.1-3c0.4-1,1.2-1.7,2.4-2.3c1.8-0.8,3.7-1,5.7-0.4
			c2,0.6,3.3,1.6,4.1,3.2c0.6,1.2,0.5,2.3,0,3.2c0.9,0.1,1.5,0.6,1.9,1.3c0.2,0.4,0.2,0.8,0.1,1.2c-0.1,0.4-0.4,0.7-0.8,0.9
			c-0.3,0.1-0.6,0.2-1,0.2l-0.4,0L21.3,258.7z M18.9,253.7l0.2,0.3c0.4,0.8,0.9,1.1,1.6,1.1l2.9-0.1c0.4,0,0.7-0.1,0.9-0.2
			c0.3-0.1,0.4-0.3,0.5-0.7c0.1-0.3,0-0.7-0.1-1c-0.3-0.7-1-1.2-2.1-1.4c-1.1-0.3-2.1-0.2-2.9,0.2C18.8,252.3,18.5,252.9,18.9,253.7
			z"/>
		<path class="st1" d="M25.5,266.7l0.8,1.4c0.6,1.1,0.5,1.9-0.3,2.4c-0.5,0.3-1.1,0.3-1.6,0.1c-0.5-0.2-1-0.7-1.4-1.4l-1.3-2.4
			c-0.4-0.7-0.5-1.3-0.4-1.8c0.1-0.6,0.4-1,1-1.3c0.3-0.2,0.8-0.3,1.6-0.4l16.4-1.9l0.4-0.1c1.2-0.1,2.1,0.2,2.6,1.2
			c0.2,0.4,0.3,0.8,0.2,1.2c-0.1,0.4-0.3,0.7-0.7,0.9c-0.3,0.1-0.6,0.2-1,0.3l-0.4,0.1L25.5,266.7z"/>
		<path class="st1" d="M43.5,293.2l1.1,1.4c0.8,1,0.8,1.8,0.1,2.4c-0.5,0.4-1,0.5-1.6,0.3s-1.1-0.5-1.6-1.2l-1.3-1.6
			c-0.5-0.6-0.6-1.3-0.3-2c-0.9-0.1-1.6-0.5-2.1-1.1l-1.2-1.5c-0.7-0.9-0.9-1.9-0.7-2.9c0.2-1,0.8-1.9,1.8-2.7
			c1.6-1.2,3.4-1.8,5.5-1.7c2.1,0.1,3.6,0.8,4.7,2.2c0.8,1,1,2,0.8,3.2l8.8-2.4c1.5-0.4,2.6-0.2,3.2,0.6c0.3,0.3,0.4,0.7,0.4,1.1
			s-0.2,0.7-0.5,1c-0.3,0.2-0.6,0.4-1,0.5l-0.4,0.1L43.5,293.2z M40,288.8l0.4,0.5c0.4,0.6,0.9,0.8,1.5,0.6l3-0.8
			c0.4-0.1,0.6-0.2,0.8-0.3c0.2-0.2,0.4-0.5,0.4-0.8s-0.1-0.7-0.3-1c-0.5-0.6-1.3-1-2.4-1c-1.1,0-2.1,0.3-2.9,0.9
			C39.6,287.5,39.5,288.1,40,288.8z"/>
		<path class="st1" d="M50.1,299.1c-0.6,0.5-0.5,1.2,0.3,2.1l3.1,3.4c0.9,1,1,1.7,0.3,2.4c-0.5,0.4-1,0.6-1.5,0.5
			c-0.6-0.1-1.1-0.5-1.7-1.1l-2.9-3.2c-1.1-1.2-1.6-2.4-1.6-3.5c0-1.2,0.6-2.3,1.7-3.3c1.5-1.3,3.2-2,5.1-1.9c2,0,3.6,0.7,4.8,2.1
			c0.9,1,1.4,2,1.4,3.1c0,1.1-0.4,2-1.2,2.8c-1,0.9-2.2,1.2-3.4,0.8c-0.7-0.2-1.5-0.8-2.3-1.7L50.1,299.1z M52.7,297.8l1.1,1.3
			c0.7,0.8,1.3,1,1.6,0.7c0.4-0.4,0.3-0.8-0.1-1.3C54.7,297.7,53.8,297.5,52.7,297.8z"/>
		<path class="st0" d="M87.6,316.1l-12.4,6.8c-3,1.6-5.2,2.7-6.4,3.1c-1.2,0.5-2.6,0.7-3.9,0.6c-2-0.1-3.8-0.7-5.3-2
			c-1.7-1.4-2.6-3-2.8-4.9s0.4-3.7,1.8-5.4c1.8-2.2,4.3-3.5,7.3-3.8c1.6-0.2,3.3,0,5.1,0.6c1.8,0.5,3.3,1.3,4.6,2.4
			c0.6,0.5,1,1.1,1.2,1.7c0.2,0.6,0,1.1-0.3,1.6c-0.4,0.5-0.9,0.7-1.6,0.7c-0.4,0-0.9-0.3-1.7-0.8c-1.7-1.2-3.3-1.8-4.7-2.1
			c-1.2-0.2-2.4-0.1-3.5,0.3c-1.1,0.4-2,1-2.7,1.9c-0.7,0.9-1.1,1.8-1,2.7s0.5,1.7,1.3,2.3c1,0.8,2.1,1.1,3.5,0.8
			c1.4-0.2,3.4-1,5.9-2.4l12.4-6.8l-2.3-1.9c-1.1-0.9-1.3-1.7-0.7-2.5c0.4-0.5,1-0.8,1.6-0.8c0.6,0,1.3,0.3,2,0.9l7.8,6.4l0.3,0.3
			l0.7,0.9c0.2,0.5,0.1,0.9-0.3,1.4c-0.4,0.5-1,0.8-1.6,0.8c-0.6,0-1.3-0.3-2-0.9L87.6,316.1z"/>
		<path class="st1" d="M91.5,325.8c1.2,0.1,2.1,0.3,2.7,0.7c0.8,0.5,1.4,1.2,1.6,2c0.2,0.8,0.1,1.6-0.4,2.3
			c-0.3,0.4-0.7,0.8-1.2,1.2l-3.6,2.5l1.5,1c1.1,0.7,1.4,1.4,0.9,2.2c-0.3,0.5-0.8,0.8-1.4,0.9c-0.6,0-1.2-0.2-1.9-0.6l-2.6-1.7
			c-0.6-0.4-0.9-0.8-1.1-1.4s-0.1-1.1,0.2-1.5c0.2-0.3,0.6-0.6,1.1-1l3.1-2.1c0.4-0.3,0.6-0.5,0.8-0.7c0.3-0.5,0.2-0.9-0.5-1.4
			c-0.9-0.6-2.1-0.3-3.7,0.8l-3.8,2.6c-1.2,0.8-2.2,1-3.1,0.4c-0.4-0.2-0.6-0.5-0.7-0.9c-0.1-0.4-0.1-0.7,0.2-1.1
			c0.2-0.2,0.4-0.5,0.7-0.7l0.4-0.3l14.6-10.2c1.3-0.9,2.3-1,3.2-0.5c0.4,0.2,0.6,0.5,0.7,0.9c0.1,0.4,0,0.8-0.2,1.1
			c-0.2,0.3-0.6,0.6-1.1,1L91.5,325.8z"/>
		<path class="st1" d="M98.9,337.9c-0.4,0.7,0,1.3,1,1.8l4,2.2c1.1,0.6,1.5,1.3,1.1,2.1c-0.3,0.6-0.7,0.9-1.3,1s-1.2-0.1-1.9-0.5
			l-3.8-2.1c-1.4-0.8-2.3-1.7-2.7-2.8c-0.4-1.1-0.2-2.3,0.6-3.7c0.9-1.7,2.3-2.9,4.2-3.6s3.6-0.5,5.2,0.4c1.2,0.6,2,1.5,2.3,2.5
			c0.4,1,0.3,2-0.2,3c-0.7,1.2-1.6,1.9-3,1.9c-0.7,0-1.6-0.2-2.7-0.8L98.9,337.9z M100.8,335.8l1.5,0.8c1,0.5,1.5,0.6,1.8,0.1
			c0.2-0.5,0-0.9-0.5-1.2C102.7,335,101.8,335.1,100.8,335.8z M109.3,331.7l-2.4,0.4c-0.6,0.1-1,0.1-1.3-0.1
			c-0.2-0.1-0.4-0.3-0.5-0.6c-0.1-0.3-0.1-0.6,0.1-0.8c0.1-0.1,0.1-0.2,0.2-0.3l0.3-0.2l1.2-1.1c0.5-0.5,1.1-0.5,1.7-0.2l0.8,0.4
			c0.9,0.5,1.2,1.1,0.8,1.8C110.1,331.4,109.8,331.6,109.3,331.7z"/>
		<path class="st1" d="M116.4,347.6l1.5,0.7c1.2,0.5,1.6,1.2,1.2,2c-0.3,0.6-0.7,0.9-1.2,1.1c-0.6,0.1-1.2,0-2-0.3l-1.8-0.8
			c-0.8-0.4-1.2-0.9-1.2-1.7c-1,0.3-1.8,0.3-2.5,0l-1.6-0.7c-1-0.5-1.7-1.2-2-2.2c-0.3-1-0.2-2.1,0.3-3.3c0.8-1.8,2.1-3.1,4-4
			c1.9-0.9,3.6-1,5.2-0.3c1.2,0.5,1.9,1.3,2.1,2.4c0.8-0.5,1.6-0.6,2.3-0.2c0.4,0.2,0.7,0.5,0.9,0.9s0.2,0.8,0,1.2
			c-0.1,0.3-0.3,0.5-0.6,0.8l-0.3,0.3L116.4,347.6z M111.3,345.4l0.4,0.2c0.8,0.3,1.4,0.3,2-0.3l2.1-2c0.3-0.3,0.5-0.5,0.6-0.7
			c0.1-0.3,0.1-0.5-0.1-0.8c-0.2-0.3-0.4-0.5-0.8-0.7c-0.7-0.3-1.5-0.2-2.5,0.3c-1,0.5-1.7,1.2-2.1,2
			C110.3,344.4,110.5,345.1,111.3,345.4z M119.4,336.8l-2.1,0.2c-0.6,0.1-1.1,0-1.4-0.1c-0.3-0.1-0.5-0.4-0.6-0.7
			c-0.1-0.3-0.1-0.7,0-1c0.2-0.5,0.8-0.8,1.8-0.9l2-0.2c0.7,0,1.2,0,1.6,0.2c0.2,0.1,0.4,0.3,0.6,0.7c0.1,0.1,0.1,0.2,0.2,0.4
			l0.7,1.4c0.3,0.6,0.4,1.1,0.1,1.6c-0.1,0.3-0.4,0.6-0.7,0.7c-0.3,0.1-0.7,0.1-1,0c-0.3-0.1-0.6-0.5-0.9-1.1L119.4,336.8z"/>
		<path class="st1" d="M131.1,344.1l0.4,0.2c1.2,0.4,1.7,1.1,1.4,2c-0.2,0.6-0.6,1-1.1,1.1c-0.6,0.2-1.2,0.1-2-0.2l-1.1-0.4
			l-3.7,4.1l1.6,0.6c1.2,0.4,1.7,1.1,1.4,2c-0.2,0.6-0.6,1-1.1,1.1c-0.5,0.2-1.2,0.1-2-0.2l-2.6-0.9c-0.7-0.3-1.3-0.6-1.6-1.1
			s-0.4-1-0.1-1.6c0.1-0.4,0.4-0.7,0.7-1.1l0.5-0.5l3.2-3.6l-0.2-0.1c-1.1-0.4-1.5-1-1.2-1.8c0.2-0.6,0.6-1,1.1-1.2
			c0.5-0.2,1.2-0.1,2,0.2l0.7,0.2l1.5-1.6l0.3-0.3c0.8-0.9,1.7-1.2,2.7-0.8c0.4,0.1,0.7,0.4,0.9,0.8s0.2,0.7,0.1,1.1
			c-0.1,0.4-0.4,0.8-0.9,1.3L131.1,344.1z"/>
		<path class="st1" d="M135.6,349l-0.9,1.1c-0.8,1-1.5,1.4-2.3,1.1c-0.4-0.1-0.8-0.4-1-0.7c-0.2-0.4-0.3-0.7-0.2-1.1
			c0.1-0.2,0.3-0.6,0.7-1.1l2.9-3.6c0.7-0.9,1.4-1.2,2.1-1c0.7,0.2,1.1,0.7,1,1.4l0,0.5c0,0.3,0,0.4,0.1,0.5
			c0.1,0.1,0.4,0.2,0.8,0.3l3.5,1c1.3,0.4,1.8,1,1.5,1.9c-0.4,1.3-1.4,1.6-3,1.2l-0.2,0.1c-2,1-3.1,2-3.4,2.8s0.1,1.4,1,1.6l1.9,0.5
			c1.3,0.4,1.7,1,1.5,1.8c-0.2,0.6-0.5,1-1.1,1.2c-0.5,0.2-1.2,0.2-2,0l-2.9-0.8c-1-0.3-1.7-0.9-2.1-1.7s-0.5-1.8-0.2-2.9
			c0.2-0.7,0.6-1.3,1.1-1.9s1.3-1.2,2.5-1.9L135.6,349z"/>
		<path class="st1" d="M147.4,356.1c-0.2,0.8,0.3,1.3,1.5,1.5l4.5,1c1.3,0.3,1.8,0.9,1.6,1.7c-0.1,0.6-0.5,1-1,1.3
			c-0.5,0.2-1.2,0.3-2,0.1l-4.3-0.9c-1.6-0.3-2.7-1-3.4-1.9c-0.7-1-0.8-2.2-0.5-3.7c0.4-1.9,1.4-3.5,3-4.6s3.3-1.5,5.1-1.1
			c1.3,0.3,2.3,0.8,2.9,1.7s0.9,1.8,0.6,3c-0.3,1.4-1.1,2.2-2.3,2.7c-0.7,0.2-1.6,0.2-2.9,0L147.4,356.1z M148.7,353.5l1.7,0.4
			c1.1,0.2,1.6,0.1,1.7-0.4c0.1-0.5-0.2-0.9-0.9-1C150.3,352.3,149.4,352.6,148.7,353.5z"/>
		<path class="st0" d="M192.4,348.1l-5.5,11.8c-0.9,2-2,3.4-3.2,4.3c-1.2,0.9-2.6,1.3-4.3,1.2c-1.6-0.1-3-0.6-4-1.7
			c-1.1-1-1.6-2.3-1.5-3.7c0.1-1.1,0.5-2.4,1.2-4l1.9-4c0.7-1.5,1.1-2.5,1.1-3.1c0-0.5-0.2-1-0.6-1.3c-0.4-0.4-0.9-0.6-1.5-0.6
			c-1-0.1-1.9,0.3-2.8,1.2c-0.9,0.8-1.3,1.8-1.4,2.9c0,0.6,0.1,1.1,0.4,1.5c0.3,0.4,0.8,0.7,1.5,1c0.7,0.3,1.1,0.8,1.1,1.5
			c0,0.6-0.3,1-0.7,1.4c-0.5,0.4-1,0.5-1.7,0.5c-1.3-0.1-2.4-0.7-3.2-1.8c-0.9-1.1-1.2-2.5-1.2-4c0.1-2.2,1.1-4.1,2.8-5.7
			c1.8-1.6,3.8-2.3,6-2.2c1.7,0.1,3.1,0.7,4.2,1.7c1.1,1.1,1.6,2.3,1.5,3.9c0,1-0.4,2.1-1,3.4l-2.6,5.6c-0.4,0.8-0.6,1.5-0.6,2
			c0,0.5,0.1,0.9,0.4,1.3c0.3,0.3,0.8,0.5,1.3,0.6c0.7,0,1.3-0.2,1.8-0.6c0.5-0.5,1-1.3,1.6-2.5l5.7-12.2c0.4-0.9,0.8-1.4,1.2-1.7
			c0.4-0.2,1.1-0.3,2-0.3l3.3,0.2c1.4,0.1,2.1,0.6,2,1.6c0,0.7-0.3,1.3-0.8,1.6c-0.5,0.4-1.2,0.5-2.1,0.5L192.4,348.1z"/>
		<path class="st1" d="M204.6,360.8l1.8-0.1c1.3-0.1,2,0.3,2,1.2c0,0.6-0.2,1.1-0.6,1.5c-0.4,0.4-1.1,0.6-1.9,0.7l-3.2,0.2
			c-0.6,0-1.2-0.1-1.6-0.5c-0.5-0.4-0.7-0.8-0.7-1.4c0-0.3,0.1-0.9,0.3-1.6l1.1-3.4c0.1-0.4,0.2-0.6,0.2-0.9c0-0.2-0.1-0.4-0.3-0.6
			c-0.2-0.2-0.5-0.2-0.8-0.2c-1.1,0.1-1.8,0.9-2.4,2.6l-1.5,4.6c-0.5,1.4-1.2,2.1-2.3,2.2c-0.4,0-0.8-0.1-1.1-0.3s-0.5-0.6-0.5-1
			c0-0.3,0-0.6,0.2-1l0.1-0.4l2.6-7.9c0.3-1,1-1.6,1.9-1.6c0.8-0.1,1.4,0.3,1.8,0.9c1-0.9,2.1-1.4,3-1.5c1-0.1,1.8,0.2,2.4,0.7
			c0.7,0.5,1,1.2,1.1,2c0,0.5,0,1-0.2,1.6L204.6,360.8z"/>
		<path class="st1" d="M213.8,359.6l1.7-0.2c1.3-0.2,2,0.2,2.1,1.1c0.1,0.6-0.1,1.1-0.5,1.5c-0.4,0.4-1,0.7-1.8,0.8l-2.4,0.3
			c-0.9,0.1-1.6,0-2.2-0.3c-0.6-0.3-0.9-0.8-1-1.4c0-0.3,0-0.8,0.1-1.3l1.7-6.5l0.1-0.5c0.3-1.2,1-1.9,2-2c0.4-0.1,0.8,0,1.2,0.3
			c0.3,0.2,0.5,0.6,0.6,1c0,0.3,0,0.8-0.2,1.5L213.8,359.6z M214,346.1c0.6-0.1,1.1,0.1,1.6,0.4c0.5,0.4,0.7,0.8,0.8,1.4
			c0.1,0.6-0.1,1.1-0.4,1.6c-0.4,0.5-0.8,0.7-1.4,0.8c-0.6,0.1-1.1-0.1-1.6-0.4c-0.5-0.4-0.7-0.8-0.8-1.4s0.1-1.1,0.4-1.6
			C212.9,346.5,213.4,346.2,214,346.1z"/>
		<path class="st1" d="M222,356.1l2.6-5.5l0.2-0.5c0.4-1,1-1.5,1.7-1.6c0.5-0.1,0.9,0,1.3,0.2c0.4,0.2,0.6,0.6,0.7,1.1
			c0.1,0.5-0.1,1.2-0.5,2.1l-4.2,8.3c-0.5,0.9-1.1,1.5-2,1.7c-0.7,0.1-1.3,0-1.8-0.4c-0.5-0.4-0.8-1.1-1-1.9c0-0.2-0.1-0.3-0.1-0.4
			l-0.6-6.1c-0.1-0.8,0-1.5,0.3-2c0.3-0.5,0.7-0.8,1.4-0.9c1-0.2,1.5,0.2,1.7,1.2c0,0.1,0.1,0.4,0.1,0.7L222,356.1z"/>
		<path class="st1" d="M232.8,354.6c0.2,0.7,0.9,1,2,0.7l4.4-1.2c1.2-0.3,2-0.1,2.2,0.8c0.2,0.6,0.1,1.1-0.3,1.6
			c-0.4,0.5-0.9,0.8-1.7,1l-4.2,1.1c-1.6,0.4-2.9,0.3-3.9-0.2c-1-0.6-1.7-1.6-2.1-3.1c-0.5-1.9-0.3-3.7,0.6-5.5
			c0.9-1.7,2.3-2.8,4.1-3.3c1.3-0.3,2.4-0.3,3.4,0.2c1,0.5,1.6,1.3,1.9,2.4c0.4,1.3,0.1,2.5-0.9,3.4c-0.5,0.5-1.4,0.9-2.6,1.3
			L232.8,354.6z M232.8,351.7l1.6-0.4c1.1-0.3,1.5-0.6,1.4-1.1c-0.2-0.5-0.6-0.7-1.2-0.5C233.7,349.9,233.1,350.6,232.8,351.7z"/>
		<path class="st1" d="M244.3,347.2l-0.1,1.4c-0.1,1.2-0.5,2-1.2,2.2c-0.4,0.2-0.8,0.1-1.2,0c-0.4-0.2-0.6-0.4-0.8-0.8
			c-0.1-0.2-0.1-0.6-0.1-1.2l0.2-4.6c0.1-1.1,0.5-1.8,1.2-2c0.7-0.2,1.3-0.1,1.7,0.6l0.3,0.4c0.1,0.2,0.3,0.3,0.4,0.3
			c0.1,0,0.4-0.1,0.9-0.2l3.4-1.2c1.3-0.4,2.1-0.2,2.4,0.7c0.4,1.2-0.2,2.1-1.8,2.7l-0.1,0.2c-1,2-1.4,3.4-1.1,4.2
			c0.3,0.8,0.9,1.1,1.8,0.7l1.8-0.6c1.2-0.4,2-0.2,2.3,0.6c0.2,0.6,0.2,1.1-0.2,1.6c-0.3,0.5-0.9,0.9-1.6,1.1l-2.9,1
			c-1,0.3-1.9,0.3-2.7-0.2s-1.5-1.2-1.8-2.3c-0.2-0.7-0.3-1.4-0.2-2.1c0.1-0.8,0.4-1.7,0.9-3L244.3,347.2z"/>
		<path class="st1" d="M258.2,342.7l0,0.8c0,1.1-0.4,1.8-1.2,2.2c-0.4,0.2-0.8,0.2-1.2,0c-0.4-0.1-0.7-0.4-0.9-0.7
			c-0.1-0.3-0.2-0.8-0.1-1.5l0.3-4.6c0.1-1.1,0.5-1.8,1.1-2.1c0.4-0.2,0.7-0.2,1.1,0c0.4,0.1,0.6,0.4,0.8,0.7c0,0.1,0.1,0.3,0.1,0.6
			c0,0.2,0.1,0.4,0.2,0.6c0.3,0.6,0.7,1.1,1.4,1.5l1.3,0.8c1.3,0.8,2.2,1.7,2.6,2.8c0.5,1.2,0.5,2.4-0.1,3.5c-0.6,1.2-1.5,2-2.8,2.6
			l-3,1.3c-1.2,0.5-2,0.3-2.3-0.5c-0.2-0.6-0.2-1.1,0.1-1.6c0.3-0.5,0.8-0.9,1.6-1.2l1.6-0.7c1.3-0.6,1.8-1.3,1.4-2.3
			c-0.1-0.3-0.4-0.7-0.9-1.1L258.2,342.7z"/>
		<path class="st1" d="M265.5,329.3c0.5-0.3,1.1-0.3,1.6-0.1s1,0.6,1.2,1.1s0.3,1.1,0.1,1.6c-0.2,0.6-0.6,1-1.1,1.2
			s-1.1,0.3-1.6,0.1c-0.6-0.2-1-0.6-1.2-1.1s-0.3-1.1-0.1-1.6C264.6,329.9,264.9,329.5,265.5,329.3z M269.5,342.1l1.6-0.8
			c1.2-0.6,1.9-0.4,2.3,0.4c0.3,0.6,0.3,1.1,0,1.6c-0.3,0.5-0.8,1-1.5,1.3l-2.2,1.1c-0.8,0.4-1.5,0.5-2.2,0.4s-1.1-0.4-1.4-1
			c-0.1-0.3-0.2-0.7-0.3-1.3l-0.5-6.7l0-0.5c-0.1-1.2,0.3-2.1,1.3-2.6c0.4-0.2,0.8-0.2,1.2-0.1s0.7,0.4,0.9,0.7
			c0.1,0.3,0.2,0.8,0.3,1.5L269.5,342.1z"/>
		<path class="st1" d="M276.4,328.9l0.4-0.2c1.1-0.6,1.9-0.6,2.4,0.2c0.3,0.5,0.3,1.1,0.1,1.6c-0.2,0.5-0.7,1-1.4,1.4l-1,0.5
			l0.7,5.4l1.5-0.8c1.1-0.6,1.9-0.6,2.4,0.2c0.3,0.5,0.3,1.1,0.1,1.6s-0.7,1-1.4,1.4l-2.4,1.3c-0.7,0.4-1.3,0.5-1.9,0.4
			s-1-0.4-1.3-0.9c-0.2-0.3-0.3-0.7-0.4-1.2l-0.1-0.7l-0.6-4.8l-0.2,0.1c-1,0.6-1.7,0.4-2.2-0.3c-0.3-0.6-0.3-1.1-0.1-1.6
			c0.2-0.5,0.7-1,1.4-1.4l0.6-0.3l-0.3-2.2l-0.1-0.4c-0.1-1.2,0.3-2.1,1.2-2.6c0.4-0.2,0.8-0.3,1.2-0.2s0.7,0.3,0.9,0.7
			c0.2,0.3,0.3,0.8,0.4,1.5L276.4,328.9z"/>
		<path class="st1" d="M291.4,329.3l1.4-0.9c1.1-0.7,1.9-0.7,2.4,0.1c0.3,0.5,0.4,1.1,0.2,1.6c-0.2,0.5-0.6,1-1.3,1.5l-1.7,1.1
			c-0.7,0.5-1.4,0.5-2.1,0.1c-0.3,1-0.7,1.7-1.3,2.1l-1.5,1c-0.9,0.6-1.9,0.8-2.9,0.5c-1-0.3-1.9-1-2.6-2.1
			c-1.1-1.7-1.5-3.5-1.2-5.5c0.3-2,1.2-3.5,2.6-4.5c1.1-0.7,2.2-0.9,3.2-0.4c0-0.9,0.4-1.6,1.1-2.1c0.4-0.2,0.8-0.3,1.2-0.3
			c0.4,0.1,0.7,0.3,1,0.6c0.2,0.2,0.3,0.6,0.4,1l0.1,0.4L291.4,329.3z M286.8,332.4l0.3-0.2c0.7-0.5,1-1.1,0.8-1.8l-0.5-2.8
			c-0.1-0.4-0.2-0.7-0.3-0.9c-0.2-0.2-0.4-0.4-0.7-0.4c-0.3,0-0.7,0.1-1,0.3c-0.6,0.4-1,1.2-1.1,2.3c-0.1,1.1,0.1,2.1,0.6,2.8
			C285.4,332.6,286.1,332.8,286.8,332.4z"/>
		<path class="st1" d="M292.4,312c0.5-0.4,1-0.5,1.6-0.4c0.6,0.1,1,0.4,1.4,0.8c0.4,0.5,0.5,1,0.4,1.6s-0.4,1.1-0.8,1.4
			c-0.5,0.4-1,0.5-1.6,0.4c-0.6-0.1-1-0.4-1.4-0.8c-0.4-0.5-0.5-1-0.4-1.6C291.7,312.8,292,312.3,292.4,312z M298.8,323.9l1.4-1
			c1-0.8,1.8-0.8,2.4-0.1c0.4,0.5,0.5,1,0.3,1.6c-0.2,0.6-0.6,1.1-1.2,1.6l-2,1.5c-0.7,0.5-1.4,0.8-2,0.8c-0.6,0-1.1-0.2-1.5-0.7
			c-0.2-0.3-0.4-0.7-0.5-1.2l-1.7-6.5l-0.1-0.4c-0.3-1.2-0.1-2.1,0.8-2.8c0.3-0.3,0.7-0.4,1.2-0.3c0.4,0,0.8,0.2,1,0.5
			c0.2,0.3,0.4,0.7,0.6,1.5L298.8,323.9z"/>
		<path class="st1" d="M302.3,314.6l0.4,1.3c0.4,1.2,0.3,2-0.3,2.5c-0.4,0.3-0.7,0.4-1.1,0.4c-0.4,0-0.8-0.2-1-0.5
			c-0.2-0.2-0.3-0.6-0.5-1.1l-1.5-4.4c-0.3-1.1-0.2-1.8,0.4-2.3c0.6-0.5,1.2-0.5,1.8-0.1l0.4,0.3c0.2,0.1,0.4,0.2,0.5,0.2
			c0.1,0,0.4-0.2,0.8-0.5l2.7-2.3c1-0.9,1.8-0.9,2.5-0.2c0.8,1,0.6,2-0.7,3.1l0,0.2c-0.2,2.2-0.1,3.7,0.5,4.3
			c0.6,0.6,1.2,0.7,1.9,0.1l1.5-1.3c1-0.8,1.8-0.9,2.4-0.2c0.4,0.5,0.6,1,0.4,1.6c-0.1,0.6-0.5,1.1-1.1,1.6l-2.3,2
			c-0.8,0.7-1.7,0.9-2.6,0.8c-1-0.1-1.8-0.6-2.5-1.5c-0.5-0.5-0.8-1.2-1-1.9c-0.2-0.7-0.2-1.8-0.2-3.1L302.3,314.6z"/>
		<path class="st1" d="M314.7,308.6c0.5,0.5,1.2,0.4,2-0.4l3.3-3.2c0.9-0.9,1.7-1,2.3-0.4c0.4,0.4,0.6,1,0.5,1.5
			c-0.1,0.6-0.4,1.1-1,1.7l-3.1,3c-1.2,1.1-2.3,1.7-3.5,1.7s-2.3-0.5-3.4-1.6c-1.4-1.4-2.1-3.1-2.2-5.1c0-2,0.6-3.6,1.9-4.9
			c1-0.9,2-1.4,3-1.5s2,0.3,2.8,1.1c1,1,1.3,2.1,0.9,3.4c-0.2,0.7-0.7,1.5-1.6,2.4L314.7,308.6z M313.3,306.1l1.2-1.2
			c0.8-0.8,1-1.3,0.6-1.6c-0.4-0.4-0.8-0.3-1.3,0.2C313.2,304.1,313,305,313.3,306.1z"/>
		<path class="st1" d="M334.5,288.2l1.1-1.4c0.8-1,1.6-1.2,2.3-0.7c0.5,0.4,0.7,0.9,0.7,1.5s-0.3,1.2-0.8,1.8l-1.3,1.6
			c-0.5,0.6-1.1,0.9-1.9,0.8c0.1,0.9-0.1,1.7-0.5,2.3l-1.2,1.5c-0.7,0.9-1.6,1.4-2.6,1.4s-2.1-0.3-3.1-1.1c-1.5-1.2-2.5-2.9-2.9-4.9
			c-0.4-2-0.1-3.7,1-5c0.8-1,1.7-1.5,2.9-1.5l-4.4-7.9c-0.8-1.4-0.8-2.4-0.2-3.3c0.3-0.3,0.6-0.5,1-0.6c0.4-0.1,0.8,0,1.1,0.3
			c0.2,0.2,0.5,0.5,0.7,0.9l0.2,0.4L334.5,288.2z M331,292.6l0.4-0.5c0.4-0.6,0.5-1.1,0.2-1.6l-1.5-2.7c-0.2-0.3-0.3-0.6-0.5-0.7
			c-0.2-0.2-0.5-0.3-0.9-0.2c-0.3,0.1-0.6,0.3-0.9,0.6c-0.5,0.6-0.6,1.5-0.3,2.6c0.3,1.1,0.8,2,1.6,2.6
			C329.8,293.4,330.5,293.3,331,292.6z"/>
		<path class="st1" d="M338.6,280.4c0.6,0.4,1.3,0.2,1.9-0.8l2.6-3.8c0.7-1.1,1.5-1.4,2.2-0.8c0.5,0.4,0.8,0.8,0.8,1.4
			s-0.2,1.2-0.6,1.9l-2.4,3.6c-0.9,1.3-1.9,2.1-3.1,2.4s-2.3-0.1-3.6-0.9c-1.6-1.1-2.7-2.6-3.1-4.5c-0.4-1.9-0.1-3.6,0.9-5.2
			c0.8-1.1,1.6-1.8,2.7-2.1c1-0.3,2-0.1,3,0.5c1.1,0.8,1.7,1.8,1.6,3.1c0,0.7-0.4,1.6-1.1,2.6L338.6,280.4z M336.7,278.2l0.9-1.4
			c0.6-0.9,0.7-1.5,0.3-1.7c-0.5-0.3-0.9-0.1-1.3,0.4C336.1,276.3,336.1,277.2,336.7,278.2z"/>
		<path class="st0" d="M351,245.4l4.6,5c2.3,2.5,3.8,4.3,4.6,5.4c0.8,1.1,1.3,2.3,1.6,3.7c0.4,1.9,0.2,3.8-0.6,5.6
			c-0.9,1.9-2.3,3.2-4.1,3.9s-3.7,0.5-5.6-0.4c-2.6-1.2-4.5-3.3-5.5-6.1c-0.6-1.5-0.8-3.2-0.7-5.1c0.1-1.9,0.5-3.5,1.2-5.1
			c0.3-0.7,0.8-1.2,1.3-1.5c0.5-0.3,1.1-0.3,1.6-0.1c0.6,0.3,0.9,0.7,1,1.4c0.1,0.4,0,1-0.3,1.8c-0.7,1.9-1,3.6-0.8,5.1
			c0.1,1.2,0.5,2.3,1.2,3.3c0.7,1,1.5,1.7,2.5,2.2c1,0.5,2,0.6,2.8,0.4c0.9-0.2,1.5-0.8,1.9-1.7c0.5-1.1,0.5-2.3-0.1-3.6
			c-0.6-1.3-1.8-3-3.8-5.1l-9.6-10.4l-0.7,1.5c-0.6,1.3-1.3,1.7-2.2,1.3c-0.6-0.3-1-0.8-1.2-1.4c-0.1-0.6,0-1.3,0.4-2.1l2.5-5.3
			c0.8-1.8,1.8-2.9,2.9-3.5s2.3-0.5,3.7,0.2c1.7,0.8,2.8,2.1,3.3,3.9c0.3,1.3,0,3-0.9,5L351,245.4z M348.3,242.5l0.5-1.1
			c0.7-1.5,0.4-2.5-0.8-3.1c-0.7-0.3-1.2-0.1-1.6,0.8L346,240L348.3,242.5z"/>
		<path class="st1" d="M349.7,230.9c0.2-0.6,0.6-1,1.1-1.2c0.5-0.3,1.1-0.3,1.6-0.1s1,0.6,1.2,1.1s0.3,1.1,0.1,1.6s-0.6,1-1.1,1.2
			c-0.5,0.3-1.1,0.3-1.6,0.1s-1-0.6-1.2-1.1C349.6,232,349.5,231.5,349.7,230.9z M361.6,237.3l0.6-1.6c0.4-1.2,1.1-1.7,1.9-1.4
			c0.6,0.2,1,0.6,1.1,1.1s0.1,1.2-0.1,2l-0.8,2.3c-0.3,0.9-0.7,1.5-1.2,1.8s-1.1,0.4-1.7,0.2c-0.3-0.1-0.7-0.4-1.1-0.7l-5-4.5
			l-0.3-0.3c-0.9-0.8-1.2-1.7-0.9-2.7c0.1-0.4,0.4-0.7,0.8-0.9c0.4-0.2,0.8-0.2,1.1-0.1c0.3,0.1,0.7,0.4,1.3,0.9L361.6,237.3z"/>
		<path class="st1" d="M368.9,225.2l-1.2,4.3c-0.4,1.2-1.1,2.1-2.2,2.6c-1.1,0.5-2.3,0.6-3.7,0.2c-1.8-0.5-3.3-1.6-4.2-3.3
			c-1-1.7-1.2-3.4-0.7-5.1c0.3-1.2,0.9-2,1.8-2.6c0.9-0.5,1.8-0.7,2.9-0.4c0.7,0.2,1.3,0.6,1.6,1.1s0.5,1,0.3,1.6
			c-0.3,0.9-0.8,1.2-1.7,1c-0.1,0-0.2-0.1-0.3-0.1c-0.1,0-0.2-0.1-0.3-0.1c-0.7-0.2-1.1,0-1.3,0.7c-0.2,0.6,0,1.3,0.5,2
			c0.5,0.7,1.2,1.2,2,1.5c0.7,0.2,1.3,0.1,1.7-0.2s0.8-1,1.1-2.1l0.8-2.8c0.4-1.3,1-1.7,1.9-1.5c0.6,0.2,1,0.5,1.2,1.1
			S369.1,224.4,368.9,225.2z"/>
		<path class="st1" d="M368.8,210.2l0.3-1.7c0.3-1.3,0.8-1.8,1.7-1.6c0.6,0.1,1,0.5,1.3,1c0.3,0.5,0.3,1.2,0.1,2l-0.4,1.9
			c-0.2,0.9-0.6,1.4-1.4,1.6c0.5,0.9,0.7,1.7,0.6,2.4l-0.4,1.7c-0.2,1.1-0.8,1.9-1.7,2.4c-0.9,0.5-2,0.6-3.3,0.4
			c-1.9-0.4-3.5-1.4-4.8-3.1c-1.2-1.6-1.7-3.3-1.3-5c0.3-1.3,0.9-2.1,1.9-2.5c-0.6-0.7-0.9-1.4-0.7-2.2c0.1-0.4,0.3-0.8,0.7-1
			c0.3-0.2,0.7-0.3,1.1-0.2c0.3,0.1,0.6,0.2,1,0.5l0.4,0.3L368.8,210.2z M367.7,215.6l0.1-0.4c0.2-0.8-0.1-1.4-0.7-1.9l-2.4-1.6
			c-0.3-0.2-0.6-0.3-0.8-0.4c-0.3-0.1-0.5,0-0.8,0.3c-0.3,0.2-0.4,0.5-0.5,0.9c-0.2,0.7,0.1,1.5,0.8,2.4c0.7,0.9,1.5,1.4,2.4,1.6
			C367,216.8,367.6,216.5,367.7,215.6z"/>
		<path class="st1" d="M365.1,200.8l1.2,0.7c1.1,0.6,1.6,1.3,1.5,2c-0.1,0.5-0.2,0.8-0.6,1.1c-0.3,0.3-0.7,0.4-1.1,0.3
			c-0.2,0-0.6-0.2-1.1-0.5l-4-2.3c-1-0.5-1.4-1.2-1.3-2c0.1-0.8,0.5-1.2,1.2-1.3l0.5-0.1c0.3,0,0.4-0.1,0.5-0.2s0.1-0.4,0.2-0.9
			l0.5-3.6c0.2-1.3,0.7-1.9,1.7-1.8c1.3,0.2,1.8,1.1,1.6,2.8l0.1,0.2c1.3,1.8,2.4,2.8,3.3,2.9c0.8,0.1,1.3-0.3,1.4-1.2l0.2-1.9
			c0.2-1.3,0.7-1.9,1.6-1.8c0.6,0.1,1.1,0.4,1.4,0.9c0.3,0.5,0.4,1.2,0.3,2l-0.4,3c-0.1,1-0.6,1.8-1.4,2.4c-0.8,0.6-1.7,0.8-2.9,0.6
			c-0.7-0.1-1.4-0.4-2-0.8s-1.4-1.1-2.2-2.1L365.1,200.8z"/>
		<path class="st1" d="M371.7,181.2l0.1-1.8c0.1-1.3,0.5-1.9,1.5-1.9c0.6,0,1.1,0.3,1.4,0.8c0.3,0.5,0.5,1.1,0.4,1.9l-0.1,2.1
			c0,0.8-0.4,1.4-1.1,1.7c0.6,0.7,0.9,1.4,0.9,2.2l-0.1,2c-0.1,1.1-0.5,2-1.3,2.7c-0.8,0.6-1.9,0.9-3.2,0.9c-2-0.1-3.7-0.9-5.2-2.3
			s-2.2-3-2.2-4.7c0.1-1.2,0.6-2.2,1.5-2.9l-8.2-3.8c-1.4-0.7-2.1-1.5-2-2.5c0-0.4,0.2-0.8,0.5-1.1c0.3-0.3,0.7-0.4,1.1-0.4
			c0.3,0,0.7,0.1,1.1,0.3l0.4,0.2L371.7,181.2z M371.6,186.8l0-0.6c0-0.7-0.2-1.2-0.8-1.4l-2.8-1.3c-0.3-0.2-0.6-0.2-0.8-0.3
			c-0.3,0-0.6,0.1-0.8,0.4s-0.4,0.6-0.4,1c0,0.8,0.4,1.6,1.2,2.3s1.8,1.1,2.8,1.2C371,188.1,371.5,187.6,371.6,186.8z"/>
		<path class="st1" d="M358.3,170.1c0-0.6,0.2-1.1,0.6-1.5c0.4-0.4,0.9-0.6,1.5-0.7c0.6,0,1.1,0.2,1.5,0.6c0.4,0.4,0.6,0.9,0.7,1.5
			s-0.2,1.1-0.6,1.5c-0.4,0.4-0.9,0.6-1.5,0.7c-0.6,0-1.1-0.2-1.5-0.6S358.3,170.7,358.3,170.1z M371.7,171.9l0-1.7
			c0-1.3,0.4-1.9,1.3-2c0.6,0,1.1,0.2,1.5,0.7c0.4,0.5,0.5,1.1,0.6,1.9l0,2.4c0,0.9-0.2,1.6-0.5,2.1c-0.4,0.5-0.9,0.8-1.5,0.8
			c-0.3,0-0.8-0.1-1.3-0.3l-6.3-2.4l-0.4-0.2c-1.2-0.5-1.8-1.2-1.8-2.2c0-0.4,0.1-0.8,0.4-1.1c0.3-0.3,0.6-0.5,1-0.5
			c0.3,0,0.8,0.1,1.5,0.4L371.7,171.9z"/>
		<path class="st1" d="M370.1,163.5c0.8-0.1,1.1-0.7,1-1.8l-0.4-4.6c-0.1-1.3,0.3-2,1.2-2c0.6,0,1.1,0.1,1.5,0.6
			c0.4,0.4,0.6,1.1,0.7,1.9l0.3,4.3c0.1,1.6-0.2,2.9-0.9,3.8c-0.7,0.9-1.9,1.4-3.4,1.5c-2,0.2-3.7-0.4-5.3-1.6
			c-1.5-1.2-2.4-2.8-2.5-4.6c-0.1-1.3,0.2-2.4,0.8-3.3c0.6-0.9,1.5-1.3,2.7-1.4c1.4-0.1,2.4,0.4,3.2,1.4c0.4,0.6,0.7,1.5,0.8,2.7
			L370.1,163.5z M367.3,163l-0.1-1.7c-0.1-1.1-0.4-1.6-0.8-1.5c-0.5,0.1-0.8,0.4-0.7,1.1C365.6,161.8,366.2,162.5,367.3,163z"/>
	</g>
	<g>
		<path class="st2" d="M197.3,187.7"/>
	</g>
	<g>
		<path class="st2" d="M185.7,219.5"/>
	</g>
</g>
</svg>
