<?xml version="1.0" encoding="utf-8"?>
<!-- Generator: Adobe Illustrator 21.0.0, SVG Export Plug-In . SVG Version: 6.00 Build 0)  -->
<svg version="1.1" id="Calque_1" xmlns="http://www.w3.org/2000/svg" xmlns:xlink="http://www.w3.org/1999/xlink" x="0px" y="0px"
	 viewBox="0 0 419.1 381.7" style="enable-background:new 0 0 419.1 381.7;" xml:space="preserve">
<style type="text/css">
	.st0{fill:#C32227;}
	.st1{fill:#FFFFFF;}
</style>
<g>
	<g id="Illustration_8_2_">
		<defs>
			<rect id="SVGID_1_" x="43.1" y="27.7" width="376" height="354"/>
		</defs>
		<clipPath id="SVGID_2_">
			<use xlink:href="#SVGID_1_"  style="overflow:visible;"/>
		</clipPath>
		<g style="clip-path:url(#SVGID_2_);">
			
				<image style="overflow:visible;" width="376" height="354" id="Illustration_9__x2B__Illustration_8" xlink:href="6A11B7C9.png"  transform="matrix(1 0 0 1 43.1378 27.6625)">
			</image>
		</g>
	</g>
	<g>
		<g>
			<path class="st0" d="M187.5,90.3C193,89,197.9,86.2,201,82c0.8-1.1,1.4-2.2,2-3.3c0.5-1.2,1-2.4,1.3-3.6c0.6-2.5,0.8-5,0.5-7.5
				c-0.2-2.5-0.9-5-1.8-7.3c-0.9-2.3-2.2-4.6-3.6-6.7c-2.9-4.1-6.7-7.4-11.1-9.4c-4.4-2-9.4-2.8-14.5-2.8
				c-5.1,0.1-10.2,0.9-15.3,2.2c-10.1,2.7-20.1,7.1-29.2,12.5c-1.1,0.7-2.2,1.4-3.3,2.1l-3.3,2.3l-3.2,2.4l-3.2,2.5
				c-4.2,3.4-8.3,6.9-12.2,10.7c-7.8,7.4-15.1,15.6-21.6,24.2c-6.5,8.7-12.4,17.9-17.2,27.7c-4.9,9.8-8.6,20.2-10.9,31.1
				c0-11.2,2.5-22.4,6.2-33.1c3.8-10.7,9-20.9,15.3-30.4c6.2-9.5,13.5-18.4,21.5-26.5c4-4,8.2-7.9,12.7-11.5
				c1.1-0.9,2.2-1.8,3.4-2.7l3.4-2.6c1.2-0.8,2.3-1.7,3.5-2.5c1.2-0.9,2.5-1.6,3.8-2.4c5-3,10.2-5.6,15.5-7.8
				c5.3-2.2,10.9-4.1,16.6-5.3c5.7-1.3,11.6-2.1,17.7-1.9c6,0.2,12.2,1.5,17.8,4.5c5.6,2.9,10.1,7.6,13.2,12.8
				c3,5.2,5,11.2,4.8,17.4c-0.1,6.1-2.4,12.2-6.7,16.4c-2.1,2.1-4.6,3.7-7.3,4.8C193.1,89.7,190.3,90.2,187.5,90.3z"/>
			<path class="st0" d="M200.8,47c-1.9-0.3-3.6-0.9-5.2-1.5c-1.6-0.7-3.1-1.5-4.6-2.4c-1.5-0.9-2.8-2-4.2-3.2
				c-0.7-0.6-1.4-1.3-2-2.3c-0.3-0.5-0.6-1.1-0.9-1.7c-0.2-0.5-0.3-1.1-0.5-1.6c-0.5-2.1-0.3-4.1,0-6c0.3-1.9,0.7-3.6,0.9-5.4
				c0.2-1.7,0.4-3.4,0.5-5.2c0.2-1.8,0.2-3.6,0.7-5.5c0.2-1,0.5-2,0.9-3c0.5-1,1-2,1.8-2.9c0.9-1,1.6-1.6,2.4-2.2
				c0.8-0.6,1.7-1.2,2.6-1.7c1.8-1,3.9-1.8,6.2-2.1c2.3-0.4,4.7-0.2,7,0.6c2.3,0.8,4.4,2.2,5.9,3.9c0.8,0.9,1.5,1.8,2,2.8
				c0.1,0.2,0.3,0.5,0.4,0.7l0.4,0.9c0.2,0.6,0.4,1.2,0.5,1.8c0.4,2.4,0.1,4.5-0.5,6.4c-0.7,1.9-1.7,3.6-3.2,4.9
				c-0.2,0.2-0.6,0.2-0.8-0.1c-0.1-0.1-0.1-0.2-0.1-0.3l0,0c-0.2-1.8-0.5-3.3-1-4.7c-0.5-1.4-1.1-2.7-1.8-3.4
				c-0.2-0.2-0.3-0.3-0.5-0.4c-0.1,0-0.2-0.1-0.2-0.1c-0.1-0.1-0.2-0.2-0.3-0.3c-0.4-0.4-0.9-0.6-1.3-0.9c-0.9-0.5-1.7-0.8-2.6-1
				c-0.9-0.2-1.8-0.3-2.8-0.4c-1,0-2.2,0.1-3.4,0.4c-0.6,0.1-1.2,0.4-1.8,0.6c-0.6,0.3-1.3,0.5-1.6,0.7c-0.1,0-0.2,0.1-0.4,0.1
				c-0.1,0-0.2,0.1-0.4,0.2c-0.2,0.1-0.5,0.3-0.8,0.4c-0.5,0.4-1.1,0.8-1.5,1.4c-1,1-1.8,2.4-2.3,3.9c-0.2,0.7-0.5,1.5-0.5,2.3
				c-0.1,0.4-0.1,0.8-0.1,1.2c0,0.4,0,0.8,0,1.2c0.2,3.2,2.2,6.2,3.6,8.2c0.2,0.2,0.4,0.4,0.5,0.7c0.2,0.2,0.3,0.3,0.4,0.4l1.2,1.4
				c0.9,1.1,2,2.3,3,3.6c1,1.3,2,2.7,2.8,4.1c0.9,1.5,1.7,3,2.4,4.8l0,0c0.1,0.3,0,0.6-0.4,0.7C201,47,200.9,47,200.8,47z"/>
		</g>
		<g>
			
				<ellipse transform="matrix(0.9185 -0.3954 0.3954 0.9185 -7.3189 72.6765)" class="st1" cx="172.7" cy="54.1" rx="11.7" ry="9.2"/>
		</g>
		<g>
			<path class="st1" d="M205.1,185.1"/>
		</g>
		<g>
			<path class="st1" d="M195.2,212.4"/>
		</g>
		<path class="st0" d="M19,188.1l0,2l0,0.4c0,1.1-0.5,1.7-1.4,1.8c-0.6,0-1.1-0.2-1.6-0.7s-0.7-1-0.7-1.7l0-0.4l-0.1-2.8l-7.4-2.8
			c-5.1-2-7.7-5-7.8-9c0-2.1,0.6-3.9,1.9-5.3c1.3-1.4,3.1-2.2,5.1-2.2c1.6,0,3.2,0.3,4.7,1.1s2.8,1.9,3.9,3.4
			c0.9,1.2,1.7,2.7,2.2,4.4c0.6,1.7,0.9,3.3,0.9,4.9l0.1,2.2l0,0.7l7.5,2.8l0.4,0.2c0.6,0.2,1.1,0.5,1.3,0.9c0.2,0.4,0.3,1,0.4,1.8
			l0.2,7.9c0,1.4-0.5,2.1-1.5,2.2c-0.6,0-1.1-0.2-1.5-0.7c-0.4-0.5-0.7-1-0.7-1.7l0-0.4l-0.1-6.6L19,188.1z M15.2,182.6l0-0.8
			c-0.1-3-0.8-5.4-2.2-7.2c-1.6-2-3.4-3-5.3-2.9c-1,0-1.9,0.4-2.6,1s-1,1.5-1,2.4c0,2.2,1.8,4,5.4,5.4L15.2,182.6z"/>
		<g>
			<path class="st1" d="M13.1,199.5c-0.8,0.1-1.1,0.7-0.9,1.9l0.6,4.5c0.2,1.3-0.2,2-1.1,2.1c-0.6,0.1-1.1-0.1-1.5-0.5
				c-0.4-0.4-0.7-1-0.8-1.8l-0.6-4.3c-0.2-1.6,0-2.9,0.7-3.8c0.7-0.9,1.8-1.5,3.3-1.7c2-0.3,3.7,0.2,5.3,1.3s2.5,2.6,2.7,4.5
				c0.2,1.3,0,2.4-0.6,3.3c-0.6,0.9-1.5,1.4-2.6,1.6c-1.4,0.2-2.5-0.3-3.3-1.3c-0.5-0.6-0.8-1.5-0.9-2.7L13.1,199.5z M16,199.9
				l0.2,1.7c0.1,1.1,0.4,1.6,0.9,1.5c0.5-0.1,0.8-0.5,0.7-1.2C17.7,201,17.1,200.3,16,199.9z"/>
		</g>
		<g>
			<path class="st1" d="M18.4,213.3l-0.8-0.1c-1.1-0.2-1.7-0.8-1.9-1.6c-0.1-0.4,0-0.8,0.2-1.2c0.2-0.4,0.5-0.6,0.9-0.7
				c0.4-0.1,0.8,0,1.5,0.2l4.5,1.2c1.1,0.3,1.7,0.8,1.8,1.5c0.1,0.4,0,0.8-0.2,1.1c-0.2,0.3-0.5,0.5-0.8,0.6c-0.1,0-0.3,0-0.6,0
				c-0.2,0-0.4,0-0.6,0.1c-0.6,0.1-1.2,0.5-1.8,1.1l-1,1.1c-1,1.1-2.1,1.8-3.3,2c-1.3,0.3-2.4,0-3.5-0.8c-1-0.8-1.7-1.9-2-3.3
				l-0.6-3.2c-0.3-1.3,0.1-2,0.9-2.2c0.6-0.1,1.1,0,1.6,0.4s0.7,1,0.9,1.8l0.3,1.8c0.3,1.4,0.9,2,1.9,1.8c0.4-0.1,0.8-0.3,1.2-0.7
				L18.4,213.3z"/>
		</g>
		<g>
			<path class="st1" d="M25.8,225.7l0.1,0.5c0.3,1.3,0.1,2-0.8,2.2c-0.6,0.2-1.1,0.1-1.6-0.3c-0.5-0.4-0.8-0.9-1-1.7l-0.3-1.1
				l-5.4-0.7l0.4,1.7c0.3,1.3,0.1,2-0.8,2.2c-0.6,0.2-1.1,0.1-1.6-0.3c-0.5-0.4-0.8-0.9-1-1.7l-0.7-2.7c-0.2-0.8-0.2-1.4,0.1-1.9
				c0.2-0.5,0.6-0.9,1.2-1c0.4-0.1,0.8-0.1,1.3-0.1l0.7,0.1l4.8,0.6l-0.1-0.2c-0.3-1.1,0-1.8,0.9-2c0.6-0.2,1.2-0.1,1.6,0.3
				c0.5,0.4,0.8,0.9,1,1.7l0.2,0.7l2.2,0.3l0.4,0.1c1.2,0.2,2,0.8,2.2,1.8c0.1,0.4,0.1,0.8-0.1,1.2c-0.2,0.4-0.5,0.6-0.9,0.7
				c-0.4,0.1-0.9,0.1-1.5,0L25.8,225.7z"/>
		</g>
		<g>
			<path class="st1" d="M19.6,234.1l0.5,1.7c0.4,1.2,0.2,2-0.7,2.3c-0.6,0.2-1.1,0.1-1.6-0.2c-0.5-0.3-0.8-0.9-1.1-1.7l-0.7-2.3
				c-0.3-0.9-0.3-1.6-0.1-2.2c0.2-0.6,0.6-1,1.2-1.2c0.3-0.1,0.8-0.1,1.3-0.1l6.7,0.5l0.5,0c1.2,0.1,2,0.6,2.3,1.6
				c0.1,0.4,0.1,0.8-0.1,1.2c-0.2,0.4-0.5,0.6-0.8,0.8c-0.3,0.1-0.8,0.1-1.6,0.1L19.6,234.1z M32.9,232c0.2,0.6,0.1,1.1-0.1,1.6
				c-0.3,0.5-0.7,0.9-1.3,1.1c-0.6,0.2-1.1,0.1-1.6-0.1c-0.5-0.3-0.9-0.7-1.1-1.3c-0.2-0.6-0.1-1.1,0.1-1.6c0.3-0.5,0.7-0.9,1.3-1.1
				c0.6-0.2,1.1-0.1,1.6,0.1C32.4,231,32.7,231.5,32.9,232z"/>
		</g>
		<g>
			<path class="st1" d="M24.4,241.6l5.8,1.6l0.5,0.1c1,0.3,1.7,0.7,1.9,1.4c0.2,0.5,0.2,0.9,0,1.3c-0.2,0.4-0.5,0.7-0.9,0.8
				c-0.5,0.2-1.2,0.1-2.2-0.2l-8.9-2.7c-1-0.3-1.7-0.9-2-1.7c-0.3-0.7-0.2-1.3,0.1-1.9s0.9-1,1.7-1.3c0.2-0.1,0.3-0.1,0.4-0.1
				l5.9-1.7c0.8-0.2,1.5-0.2,2,0c0.5,0.2,0.9,0.6,1.1,1.2c0.3,0.9,0.1,1.5-0.9,1.9c-0.1,0.1-0.4,0.1-0.7,0.2L24.4,241.6z"/>
		</g>
		<g>
			<path class="st1" d="M29.6,258.7l0.7,1.5c0.5,1.2,0.4,1.9-0.4,2.3c-0.6,0.3-1.1,0.3-1.6,0c-0.5-0.3-0.9-0.8-1.3-1.5l-0.8-1.8
				c-0.4-0.8-0.3-1.5,0.2-2.1c-0.9-0.4-1.6-0.9-1.9-1.6l-0.7-1.6c-0.5-1-0.5-2-0.1-3c0.4-1,1.2-1.7,2.4-2.3c1.8-0.8,3.7-1,5.7-0.4
				c2,0.6,3.3,1.6,4.1,3.2c0.6,1.2,0.5,2.3,0,3.2c0.9,0.1,1.5,0.6,1.9,1.3c0.2,0.4,0.2,0.8,0.1,1.2c-0.1,0.4-0.4,0.7-0.8,0.9
				c-0.3,0.1-0.6,0.2-1,0.2l-0.4,0L29.6,258.7z M27.2,253.7l0.2,0.3c0.4,0.8,0.9,1.1,1.6,1.1l2.9-0.1c0.4,0,0.7-0.1,0.9-0.2
				c0.3-0.1,0.4-0.3,0.5-0.7c0.1-0.3,0-0.7-0.1-1c-0.3-0.7-1-1.2-2.1-1.4c-1.1-0.3-2.1-0.2-2.9,0.2
				C27.1,252.3,26.8,252.9,27.2,253.7z"/>
		</g>
		<g>
			<path class="st1" d="M33.8,266.7l0.8,1.4c0.6,1.1,0.5,1.9-0.3,2.4c-0.5,0.3-1.1,0.3-1.6,0.1c-0.5-0.2-1-0.7-1.4-1.4l-1.3-2.4
				c-0.4-0.7-0.5-1.3-0.4-1.8c0.1-0.6,0.4-1,1-1.3c0.3-0.2,0.8-0.3,1.6-0.4l16.4-1.9l0.4-0.1c1.2-0.1,2.1,0.2,2.6,1.2
				c0.2,0.4,0.3,0.8,0.2,1.2c-0.1,0.4-0.3,0.7-0.7,0.9c-0.3,0.1-0.6,0.2-1,0.3l-0.4,0.1L33.8,266.7z"/>
		</g>
		<g>
			<path class="st1" d="M51.8,293.2l1.1,1.4c0.8,1,0.8,1.8,0.1,2.4c-0.5,0.4-1,0.5-1.6,0.3s-1.1-0.5-1.6-1.2l-1.3-1.6
				c-0.5-0.6-0.6-1.3-0.3-2c-0.9-0.1-1.6-0.5-2.1-1.1l-1.2-1.5c-0.7-0.9-0.9-1.9-0.7-2.9c0.2-1,0.8-1.9,1.8-2.7
				c1.6-1.2,3.4-1.8,5.5-1.7c2.1,0.1,3.6,0.8,4.7,2.2c0.8,1,1,2,0.8,3.2l8.8-2.4c1.5-0.4,2.6-0.2,3.2,0.6c0.3,0.3,0.4,0.7,0.4,1.1
				s-0.2,0.7-0.5,1c-0.3,0.2-0.6,0.4-1,0.5l-0.4,0.1L51.8,293.2z M48.3,288.8l0.4,0.5c0.4,0.6,0.9,0.8,1.5,0.6l3-0.8
				c0.4-0.1,0.6-0.2,0.8-0.3c0.2-0.2,0.4-0.5,0.4-0.8s-0.1-0.7-0.3-1c-0.5-0.6-1.3-1-2.4-1c-1.1,0-2.1,0.3-2.9,0.9
				C47.8,287.5,47.7,288.1,48.3,288.8z"/>
		</g>
		<g>
			<path class="st1" d="M58.4,299.1c-0.6,0.5-0.5,1.2,0.3,2.1l3.1,3.4c0.9,1,1,1.7,0.3,2.4c-0.5,0.4-1,0.6-1.5,0.5
				c-0.6-0.1-1.1-0.5-1.7-1.1l-2.9-3.2c-1.1-1.2-1.6-2.4-1.6-3.5c0-1.2,0.6-2.3,1.7-3.3c1.5-1.3,3.2-2,5.1-1.9c2,0,3.6,0.7,4.8,2.1
				c0.9,1,1.4,2,1.4,3.1c0,1.1-0.4,2-1.2,2.8c-1,0.9-2.2,1.2-3.4,0.8c-0.7-0.2-1.5-0.8-2.3-1.7L58.4,299.1z M60.9,297.8l1.1,1.3
				c0.7,0.8,1.3,1,1.6,0.7c0.4-0.4,0.3-0.8-0.1-1.3C63,297.7,62.1,297.5,60.9,297.8z"/>
		</g>
		<path class="st0" d="M95.9,316.1l-12.4,6.8c-3,1.6-5.2,2.7-6.4,3.1c-1.2,0.5-2.6,0.7-3.9,0.6c-2-0.1-3.8-0.7-5.3-2
			c-1.7-1.4-2.6-3-2.8-4.9s0.4-3.7,1.8-5.4c1.8-2.2,4.3-3.5,7.3-3.8c1.6-0.2,3.3,0,5.1,0.6c1.8,0.5,3.3,1.3,4.6,2.4
			c0.6,0.5,1,1.1,1.2,1.7c0.2,0.6,0,1.1-0.3,1.6c-0.4,0.5-0.9,0.7-1.6,0.7c-0.4,0-0.9-0.3-1.7-0.8c-1.7-1.2-3.3-1.8-4.7-2.1
			c-1.2-0.2-2.4-0.1-3.5,0.3c-1.1,0.4-2,1-2.7,1.9c-0.7,0.9-1.1,1.8-1,2.7s0.5,1.7,1.3,2.3c1,0.8,2.1,1.1,3.5,0.8
			c1.4-0.2,3.4-1,5.9-2.4l12.4-6.8l-2.3-1.9c-1.1-0.9-1.3-1.7-0.7-2.5c0.4-0.5,1-0.8,1.6-0.8c0.6,0,1.3,0.3,2,0.9l7.8,6.4l0.3,0.3
			l0.7,0.9c0.2,0.5,0.1,0.9-0.3,1.4c-0.4,0.5-1,0.8-1.6,0.8c-0.6,0-1.3-0.3-2-0.9L95.9,316.1z"/>
		<g>
			<path class="st1" d="M99.8,325.8c1.2,0.1,2.1,0.3,2.7,0.7c0.8,0.5,1.4,1.2,1.6,2c0.2,0.8,0.1,1.6-0.4,2.3
				c-0.3,0.4-0.7,0.8-1.2,1.2l-3.6,2.5l1.5,1c1.1,0.7,1.4,1.4,0.9,2.2c-0.3,0.5-0.8,0.8-1.4,0.9c-0.6,0-1.2-0.2-1.9-0.6l-2.6-1.7
				c-0.6-0.4-0.9-0.8-1.1-1.4s-0.1-1.1,0.2-1.5c0.2-0.3,0.6-0.6,1.1-1l3.1-2.1c0.4-0.3,0.6-0.5,0.8-0.7c0.3-0.5,0.2-0.9-0.5-1.4
				c-0.9-0.6-2.1-0.3-3.7,0.8l-3.8,2.6c-1.2,0.8-2.2,1-3.1,0.4c-0.4-0.2-0.6-0.5-0.7-0.9c-0.1-0.4-0.1-0.7,0.2-1.1
				c0.2-0.2,0.4-0.5,0.7-0.7L89,329l14.6-10.2c1.3-0.9,2.3-1,3.2-0.5c0.4,0.2,0.6,0.5,0.7,0.9c0.1,0.4,0,0.8-0.2,1.1
				c-0.2,0.3-0.6,0.6-1.1,1L99.8,325.8z"/>
		</g>
		<g>
			<path class="st1" d="M107.1,337.9c-0.4,0.7,0,1.3,1,1.8l4,2.2c1.1,0.6,1.5,1.3,1.1,2.1c-0.3,0.6-0.7,0.9-1.3,1s-1.2-0.1-1.9-0.5
				l-3.8-2.1c-1.4-0.8-2.3-1.7-2.7-2.8c-0.4-1.1-0.2-2.3,0.6-3.7c0.9-1.7,2.3-2.9,4.2-3.6s3.6-0.5,5.2,0.4c1.2,0.6,2,1.5,2.3,2.5
				c0.4,1,0.3,2-0.2,3c-0.7,1.2-1.6,1.9-3,1.9c-0.7,0-1.6-0.2-2.7-0.8L107.1,337.9z M109.1,335.8l1.5,0.8c1,0.5,1.5,0.6,1.8,0.1
				c0.2-0.5,0-0.9-0.5-1.2C111,335,110.1,335.1,109.1,335.8z M117.6,331.7l-2.4,0.4c-0.6,0.1-1,0.1-1.3-0.1
				c-0.2-0.1-0.4-0.3-0.5-0.6c-0.1-0.3-0.1-0.6,0.1-0.8c0.1-0.1,0.1-0.2,0.2-0.3l0.3-0.2l1.2-1.1c0.5-0.5,1.1-0.5,1.7-0.2l0.8,0.4
				c0.9,0.5,1.2,1.1,0.8,1.8C118.4,331.4,118.1,331.6,117.6,331.7z"/>
		</g>
		<g>
			<path class="st1" d="M124.7,347.6l1.5,0.7c1.2,0.5,1.6,1.2,1.2,2c-0.3,0.6-0.7,0.9-1.2,1.1c-0.6,0.1-1.2,0-2-0.3l-1.8-0.8
				c-0.8-0.4-1.2-0.9-1.2-1.7c-1,0.3-1.8,0.3-2.5,0l-1.6-0.7c-1-0.5-1.7-1.2-2-2.2c-0.3-1-0.2-2.1,0.3-3.3c0.8-1.8,2.1-3.1,4-4
				c1.9-0.9,3.6-1,5.2-0.3c1.2,0.5,1.9,1.3,2.1,2.4c0.8-0.5,1.6-0.6,2.3-0.2c0.4,0.2,0.7,0.5,0.9,0.9s0.2,0.8,0,1.2
				c-0.1,0.3-0.3,0.5-0.6,0.8l-0.3,0.3L124.7,347.6z M119.5,345.4l0.4,0.2c0.8,0.3,1.4,0.3,2-0.3l2.1-2c0.3-0.3,0.5-0.5,0.6-0.7
				c0.1-0.3,0.1-0.5-0.1-0.8c-0.2-0.3-0.4-0.5-0.8-0.7c-0.7-0.3-1.5-0.2-2.5,0.3c-1,0.5-1.7,1.2-2.1,2
				C118.6,344.4,118.8,345.1,119.5,345.4z M127.7,336.8l-2.1,0.2c-0.6,0.1-1.1,0-1.4-0.1c-0.3-0.1-0.5-0.4-0.6-0.7
				c-0.1-0.3-0.1-0.7,0-1c0.2-0.5,0.8-0.8,1.8-0.9l2-0.2c0.7,0,1.2,0,1.6,0.2c0.2,0.1,0.4,0.3,0.6,0.7c0.1,0.1,0.1,0.2,0.2,0.4
				l0.7,1.4c0.3,0.6,0.4,1.1,0.1,1.6c-0.1,0.3-0.4,0.6-0.7,0.7c-0.3,0.1-0.7,0.1-1,0c-0.3-0.1-0.6-0.5-0.9-1.1L127.7,336.8z"/>
		</g>
		<g>
			<path class="st1" d="M139.3,344.1l0.4,0.2c1.2,0.4,1.7,1.1,1.4,2c-0.2,0.6-0.6,1-1.1,1.1c-0.6,0.2-1.2,0.1-2-0.2l-1.1-0.4
				l-3.7,4.1l1.6,0.6c1.2,0.4,1.7,1.1,1.4,2c-0.2,0.6-0.6,1-1.1,1.1c-0.5,0.2-1.2,0.1-2-0.2l-2.6-0.9c-0.7-0.3-1.3-0.6-1.6-1.1
				s-0.4-1-0.1-1.6c0.1-0.4,0.4-0.7,0.7-1.1l0.5-0.5l3.2-3.6l-0.2-0.1c-1.1-0.4-1.5-1-1.2-1.8c0.2-0.6,0.6-1,1.1-1.2
				c0.5-0.2,1.2-0.1,2,0.2l0.7,0.2l1.5-1.6l0.3-0.3c0.8-0.9,1.7-1.2,2.7-0.8c0.4,0.1,0.7,0.4,0.9,0.8s0.2,0.7,0.1,1.1
				c-0.1,0.4-0.4,0.8-0.9,1.3L139.3,344.1z"/>
		</g>
		<g>
			<path class="st1" d="M143.9,349l-0.9,1.1c-0.8,1-1.5,1.4-2.3,1.1c-0.4-0.1-0.8-0.4-1-0.7c-0.2-0.4-0.3-0.7-0.2-1.1
				c0.1-0.2,0.3-0.6,0.7-1.1l2.9-3.6c0.7-0.9,1.4-1.2,2.1-1c0.7,0.2,1.1,0.7,1,1.4l0,0.5c0,0.3,0,0.4,0.1,0.5
				c0.1,0.1,0.4,0.2,0.8,0.3l3.5,1c1.3,0.4,1.8,1,1.5,1.9c-0.4,1.3-1.4,1.6-3,1.2l-0.2,0.1c-2,1-3.1,2-3.4,2.8s0.1,1.4,1,1.6
				l1.9,0.5c1.3,0.4,1.7,1,1.5,1.8c-0.2,0.6-0.5,1-1.1,1.2c-0.5,0.2-1.2,0.2-2,0l-2.9-0.8c-1-0.3-1.7-0.9-2.1-1.7s-0.5-1.8-0.2-2.9
				c0.2-0.7,0.6-1.3,1.1-1.9s1.3-1.2,2.5-1.9L143.9,349z"/>
		</g>
		<g>
			<path class="st1" d="M155.7,356.1c-0.2,0.8,0.3,1.3,1.5,1.5l4.5,1c1.3,0.3,1.8,0.9,1.6,1.7c-0.1,0.6-0.5,1-1,1.3
				c-0.5,0.2-1.2,0.3-2,0.1l-4.3-0.9c-1.6-0.3-2.7-1-3.4-1.9c-0.7-1-0.8-2.2-0.5-3.7c0.4-1.9,1.4-3.5,3-4.6s3.3-1.5,5.1-1.1
				c1.3,0.3,2.3,0.8,2.9,1.7s0.9,1.8,0.6,3c-0.3,1.4-1.1,2.2-2.3,2.7c-0.7,0.2-1.6,0.2-2.9,0L155.7,356.1z M157,353.5l1.7,0.4
				c1.1,0.2,1.6,0.1,1.7-0.4c0.1-0.5-0.2-0.9-0.9-1C158.6,352.3,157.7,352.6,157,353.5z"/>
		</g>
		<path class="st0" d="M200.7,348.1l-5.5,11.8c-0.9,2-2,3.4-3.2,4.3c-1.2,0.9-2.6,1.3-4.3,1.2c-1.6-0.1-3-0.6-4-1.7
			c-1.1-1-1.6-2.3-1.5-3.7c0.1-1.1,0.5-2.4,1.2-4l1.9-4c0.7-1.5,1.1-2.5,1.1-3.1c0-0.5-0.2-1-0.6-1.3c-0.4-0.4-0.9-0.6-1.5-0.6
			c-1-0.1-1.9,0.3-2.8,1.2c-0.9,0.8-1.3,1.8-1.4,2.9c0,0.6,0.1,1.1,0.4,1.5c0.3,0.4,0.8,0.7,1.5,1c0.7,0.3,1.1,0.8,1.1,1.5
			c0,0.6-0.3,1-0.7,1.4c-0.5,0.4-1,0.5-1.7,0.5c-1.3-0.1-2.4-0.7-3.2-1.8c-0.9-1.1-1.2-2.5-1.2-4c0.1-2.2,1.1-4.1,2.8-5.7
			c1.8-1.6,3.8-2.3,6-2.2c1.7,0.1,3.1,0.7,4.2,1.7c1.1,1.1,1.6,2.3,1.5,3.9c0,1-0.4,2.1-1,3.4l-2.6,5.6c-0.4,0.8-0.6,1.5-0.6,2
			c0,0.5,0.1,0.9,0.4,1.3c0.3,0.3,0.8,0.5,1.3,0.6c0.7,0,1.3-0.2,1.8-0.6c0.5-0.5,1-1.3,1.6-2.5l5.7-12.2c0.4-0.9,0.8-1.4,1.2-1.7
			c0.4-0.2,1.1-0.3,2-0.3l3.3,0.2c1.4,0.1,2.1,0.6,2,1.6c0,0.7-0.3,1.3-0.8,1.6c-0.5,0.4-1.2,0.5-2.1,0.5L200.7,348.1z"/>
		<g>
			<path class="st1" d="M212.8,360.8l1.8-0.1c1.3-0.1,2,0.3,2,1.2c0,0.6-0.2,1.1-0.6,1.5c-0.4,0.4-1.1,0.6-1.9,0.7l-3.2,0.2
				c-0.6,0-1.2-0.1-1.6-0.5c-0.5-0.4-0.7-0.8-0.7-1.4c0-0.3,0.1-0.9,0.3-1.6l1.1-3.4c0.1-0.4,0.2-0.6,0.2-0.9c0-0.2-0.1-0.4-0.3-0.6
				c-0.2-0.2-0.5-0.2-0.8-0.2c-1.1,0.1-1.8,0.9-2.4,2.6l-1.5,4.6c-0.5,1.4-1.2,2.1-2.3,2.2c-0.4,0-0.8-0.1-1.1-0.3s-0.5-0.6-0.5-1
				c0-0.3,0-0.6,0.2-1l0.1-0.4l2.6-7.9c0.3-1,1-1.6,1.9-1.6c0.8-0.1,1.4,0.3,1.8,0.9c1-0.9,2.1-1.4,3-1.5c1-0.1,1.8,0.2,2.4,0.7
				c0.7,0.5,1,1.2,1.1,2c0,0.5,0,1-0.2,1.6L212.8,360.8z"/>
		</g>
		<g>
			<path class="st1" d="M222.1,359.6l1.7-0.2c1.3-0.2,2,0.2,2.1,1.1c0.1,0.6-0.1,1.1-0.5,1.5c-0.4,0.4-1,0.7-1.8,0.8l-2.4,0.3
				c-0.9,0.1-1.6,0-2.2-0.3c-0.6-0.3-0.9-0.8-1-1.4c0-0.3,0-0.8,0.1-1.3l1.7-6.5l0.1-0.5c0.3-1.2,1-1.9,2-2c0.4-0.1,0.8,0,1.2,0.3
				c0.3,0.2,0.5,0.6,0.6,1c0,0.3,0,0.8-0.2,1.5L222.1,359.6z M222.3,346.1c0.6-0.1,1.1,0.1,1.6,0.4c0.5,0.4,0.7,0.8,0.8,1.4
				c0.1,0.6-0.1,1.1-0.4,1.6c-0.4,0.5-0.8,0.7-1.4,0.8c-0.6,0.1-1.1-0.1-1.6-0.4c-0.5-0.4-0.7-0.8-0.8-1.4s0.1-1.1,0.4-1.6
				C221.2,346.5,221.7,346.2,222.3,346.1z"/>
		</g>
		<g>
			<path class="st1" d="M230.2,356.1l2.6-5.5l0.2-0.5c0.4-1,1-1.5,1.7-1.6c0.5-0.1,0.9,0,1.3,0.2c0.4,0.2,0.6,0.6,0.7,1.1
				c0.1,0.5-0.1,1.2-0.5,2.1l-4.2,8.3c-0.5,0.9-1.1,1.5-2,1.7c-0.7,0.1-1.3,0-1.8-0.4c-0.5-0.4-0.8-1.1-1-1.9c0-0.2-0.1-0.3-0.1-0.4
				l-0.6-6.1c-0.1-0.8,0-1.5,0.3-2c0.3-0.5,0.7-0.8,1.4-0.9c1-0.2,1.5,0.2,1.7,1.2c0,0.1,0.1,0.4,0.1,0.7L230.2,356.1z"/>
		</g>
		<g>
			<path class="st1" d="M241.1,354.6c0.2,0.7,0.9,1,2,0.7l4.4-1.2c1.2-0.3,2-0.1,2.2,0.8c0.2,0.6,0.1,1.1-0.3,1.6
				c-0.4,0.5-0.9,0.8-1.7,1l-4.2,1.1c-1.6,0.4-2.9,0.3-3.9-0.2c-1-0.6-1.7-1.6-2.1-3.1c-0.5-1.9-0.3-3.7,0.6-5.5
				c0.9-1.7,2.3-2.8,4.1-3.3c1.3-0.3,2.4-0.3,3.4,0.2c1,0.5,1.6,1.3,1.9,2.4c0.4,1.3,0.1,2.5-0.9,3.4c-0.5,0.5-1.4,0.9-2.6,1.3
				L241.1,354.6z M241.1,351.7l1.6-0.4c1.1-0.3,1.5-0.6,1.4-1.1c-0.2-0.5-0.6-0.7-1.2-0.5C242,349.9,241.4,350.6,241.1,351.7z"/>
		</g>
		<g>
			<path class="st1" d="M252.6,347.2l-0.1,1.4c-0.1,1.2-0.5,2-1.2,2.2c-0.4,0.2-0.8,0.1-1.2,0c-0.4-0.2-0.6-0.4-0.8-0.8
				c-0.1-0.2-0.1-0.6-0.1-1.2l0.2-4.6c0.1-1.1,0.5-1.8,1.2-2c0.7-0.2,1.3-0.1,1.7,0.6l0.3,0.4c0.1,0.2,0.3,0.3,0.4,0.3
				c0.1,0,0.4-0.1,0.9-0.2l3.4-1.2c1.3-0.4,2.1-0.2,2.4,0.7c0.4,1.2-0.2,2.1-1.8,2.7l-0.1,0.2c-1,2-1.4,3.4-1.1,4.2
				c0.3,0.8,0.9,1.1,1.8,0.7l1.8-0.6c1.2-0.4,2-0.2,2.3,0.6c0.2,0.6,0.2,1.1-0.2,1.6c-0.3,0.5-0.9,0.9-1.6,1.1l-2.9,1
				c-1,0.3-1.9,0.3-2.7-0.2c-0.8-0.5-1.5-1.2-1.8-2.3c-0.2-0.7-0.3-1.4-0.2-2.1c0.1-0.8,0.4-1.7,0.9-3L252.6,347.2z"/>
		</g>
		<g>
			<path class="st1" d="M266.4,342.7l0,0.8c0,1.1-0.4,1.8-1.2,2.2c-0.4,0.2-0.8,0.2-1.2,0c-0.4-0.1-0.7-0.4-0.9-0.7
				c-0.1-0.3-0.2-0.8-0.1-1.5l0.3-4.6c0.1-1.1,0.5-1.8,1.1-2.1c0.4-0.2,0.7-0.2,1.1,0c0.4,0.1,0.6,0.4,0.8,0.7
				c0,0.1,0.1,0.3,0.1,0.6c0,0.2,0.1,0.4,0.2,0.6c0.3,0.6,0.7,1.1,1.4,1.5l1.3,0.8c1.3,0.8,2.2,1.7,2.6,2.8c0.5,1.2,0.5,2.4-0.1,3.5
				c-0.6,1.2-1.5,2-2.8,2.6l-3,1.3c-1.2,0.5-2,0.3-2.3-0.5c-0.2-0.6-0.2-1.1,0.1-1.6c0.3-0.5,0.8-0.9,1.6-1.2l1.6-0.7
				c1.3-0.6,1.8-1.3,1.4-2.3c-0.1-0.3-0.4-0.7-0.9-1.1L266.4,342.7z"/>
		</g>
		<g>
			<path class="st1" d="M273.7,329.3c0.5-0.3,1.1-0.3,1.6-0.1s1,0.6,1.2,1.1s0.3,1.1,0.1,1.6c-0.2,0.6-0.6,1-1.1,1.2
				s-1.1,0.3-1.6,0.1c-0.6-0.2-1-0.6-1.2-1.1s-0.3-1.1-0.1-1.6C272.8,329.9,273.2,329.5,273.7,329.3z M277.8,342.1l1.6-0.8
				c1.2-0.6,1.9-0.4,2.3,0.4c0.3,0.6,0.3,1.1,0,1.6c-0.3,0.5-0.8,1-1.5,1.3l-2.2,1.1c-0.8,0.4-1.5,0.5-2.2,0.4s-1.1-0.4-1.4-1
				c-0.1-0.3-0.2-0.7-0.3-1.3l-0.5-6.7l0-0.5c-0.1-1.2,0.3-2.1,1.3-2.6c0.4-0.2,0.8-0.2,1.2-0.1s0.7,0.4,0.9,0.7
				c0.1,0.3,0.2,0.8,0.3,1.5L277.8,342.1z"/>
		</g>
		<g>
			<path class="st1" d="M284.7,328.9l0.4-0.2c1.1-0.6,1.9-0.6,2.4,0.2c0.3,0.5,0.3,1.1,0.1,1.6c-0.2,0.5-0.7,1-1.4,1.4l-1,0.5
				l0.7,5.4l1.5-0.8c1.1-0.6,1.9-0.6,2.4,0.2c0.3,0.5,0.3,1.1,0.1,1.6s-0.7,1-1.4,1.4l-2.4,1.3c-0.7,0.4-1.3,0.5-1.9,0.4
				s-1-0.4-1.3-0.9c-0.2-0.3-0.3-0.7-0.4-1.2l-0.1-0.7l-0.6-4.8l-0.2,0.1c-1,0.6-1.7,0.4-2.2-0.3c-0.3-0.6-0.3-1.1-0.1-1.6
				c0.2-0.5,0.7-1,1.4-1.4l0.6-0.3l-0.3-2.2l-0.1-0.4c-0.1-1.2,0.3-2.1,1.2-2.6c0.4-0.2,0.8-0.3,1.2-0.2s0.7,0.3,0.9,0.7
				c0.2,0.3,0.3,0.8,0.4,1.5L284.7,328.9z"/>
		</g>
		<g>
			<path class="st1" d="M299.7,329.3l1.4-0.9c1.1-0.7,1.9-0.7,2.4,0.1c0.3,0.5,0.4,1.1,0.2,1.6c-0.2,0.5-0.6,1-1.3,1.5l-1.7,1.1
				c-0.7,0.5-1.4,0.5-2.1,0.1c-0.3,1-0.7,1.7-1.3,2.1l-1.5,1c-0.9,0.6-1.9,0.8-2.9,0.5c-1-0.3-1.9-1-2.6-2.1
				c-1.1-1.7-1.5-3.5-1.2-5.5c0.3-2,1.2-3.5,2.6-4.5c1.1-0.7,2.2-0.9,3.2-0.4c0-0.9,0.4-1.6,1.1-2.1c0.4-0.2,0.8-0.3,1.2-0.3
				c0.4,0.1,0.7,0.3,1,0.6c0.2,0.2,0.3,0.6,0.4,1l0.1,0.4L299.7,329.3z M295.1,332.4l0.3-0.2c0.7-0.5,1-1.1,0.8-1.8l-0.5-2.8
				c-0.1-0.4-0.2-0.7-0.3-0.9c-0.2-0.2-0.4-0.4-0.7-0.4c-0.3,0-0.7,0.1-1,0.3c-0.6,0.4-1,1.2-1.1,2.3c-0.1,1.1,0.1,2.1,0.6,2.8
				C293.7,332.6,294.3,332.8,295.1,332.4z"/>
		</g>
		<g>
			<path class="st1" d="M300.7,312c0.5-0.4,1-0.5,1.6-0.4c0.6,0.1,1,0.4,1.4,0.8c0.4,0.5,0.5,1,0.4,1.6s-0.4,1.1-0.8,1.4
				c-0.5,0.4-1,0.5-1.6,0.4c-0.6-0.1-1-0.4-1.4-0.8c-0.4-0.5-0.5-1-0.4-1.6C300,312.8,300.2,312.3,300.7,312z M307.1,323.9l1.4-1
				c1-0.8,1.8-0.8,2.4-0.1c0.4,0.5,0.5,1,0.3,1.6c-0.2,0.6-0.6,1.1-1.2,1.6l-2,1.5c-0.7,0.5-1.4,0.8-2,0.8c-0.6,0-1.1-0.2-1.5-0.7
				c-0.2-0.3-0.4-0.7-0.5-1.2l-1.7-6.5l-0.1-0.4c-0.3-1.2-0.1-2.1,0.8-2.8c0.3-0.3,0.7-0.4,1.2-0.3c0.4,0,0.8,0.2,1,0.5
				c0.2,0.3,0.4,0.7,0.6,1.5L307.1,323.9z"/>
		</g>
		<g>
			<path class="st1" d="M310.6,314.6l0.4,1.3c0.4,1.2,0.3,2-0.3,2.5c-0.4,0.3-0.7,0.4-1.1,0.4c-0.4,0-0.8-0.2-1-0.5
				c-0.2-0.2-0.3-0.6-0.5-1.1l-1.5-4.4c-0.3-1.1-0.2-1.8,0.4-2.3c0.6-0.5,1.2-0.5,1.8-0.1l0.4,0.3c0.2,0.1,0.4,0.2,0.5,0.2
				c0.1,0,0.4-0.2,0.8-0.5l2.7-2.3c1-0.9,1.8-0.9,2.5-0.2c0.8,1,0.6,2-0.7,3.1l0,0.2c-0.2,2.2-0.1,3.7,0.5,4.3
				c0.6,0.6,1.2,0.7,1.9,0.1l1.5-1.3c1-0.8,1.8-0.9,2.4-0.2c0.4,0.5,0.6,1,0.4,1.6c-0.1,0.6-0.5,1.1-1.1,1.6l-2.3,2
				c-0.8,0.7-1.7,0.9-2.6,0.8c-1-0.1-1.8-0.6-2.5-1.5c-0.5-0.5-0.8-1.2-1-1.9c-0.2-0.7-0.2-1.8-0.2-3.1L310.6,314.6z"/>
		</g>
		<g>
			<path class="st1" d="M323,308.6c0.5,0.5,1.2,0.4,2-0.4l3.3-3.2c0.9-0.9,1.7-1,2.3-0.4c0.4,0.4,0.6,1,0.5,1.5
				c-0.1,0.6-0.4,1.1-1,1.7l-3.1,3c-1.2,1.1-2.3,1.7-3.5,1.7s-2.3-0.5-3.4-1.6c-1.4-1.4-2.1-3.1-2.2-5.1c0-2,0.6-3.6,1.9-4.9
				c1-0.9,2-1.4,3-1.5s2,0.3,2.8,1.1c1,1,1.3,2.1,0.9,3.4c-0.2,0.7-0.7,1.5-1.6,2.4L323,308.6z M321.6,306.1l1.2-1.2
				c0.8-0.8,1-1.3,0.6-1.6c-0.4-0.4-0.8-0.3-1.3,0.2C321.4,304.1,321.3,305,321.6,306.1z"/>
		</g>
		<g>
			<path class="st1" d="M342.7,288.2l1.1-1.4c0.8-1,1.6-1.2,2.3-0.7c0.5,0.4,0.7,0.9,0.7,1.5s-0.3,1.2-0.8,1.8l-1.3,1.6
				c-0.5,0.6-1.1,0.9-1.9,0.8c0.1,0.9-0.1,1.7-0.5,2.3l-1.2,1.5c-0.7,0.9-1.6,1.4-2.6,1.4s-2.1-0.3-3.1-1.1
				c-1.5-1.2-2.5-2.9-2.9-4.9c-0.4-2-0.1-3.7,1-5c0.8-1,1.7-1.5,2.9-1.5l-4.4-7.9c-0.8-1.4-0.8-2.4-0.2-3.3c0.3-0.3,0.6-0.5,1-0.6
				c0.4-0.1,0.8,0,1.1,0.3c0.2,0.2,0.5,0.5,0.7,0.9l0.2,0.4L342.7,288.2z M339.3,292.6l0.4-0.5c0.4-0.6,0.5-1.1,0.2-1.6l-1.5-2.7
				c-0.2-0.3-0.3-0.6-0.5-0.7c-0.2-0.2-0.5-0.3-0.9-0.2c-0.3,0.1-0.6,0.3-0.9,0.6c-0.5,0.6-0.6,1.5-0.3,2.6c0.3,1.1,0.8,2,1.6,2.6
				C338.1,293.4,338.8,293.3,339.3,292.6z"/>
		</g>
		<g>
			<path class="st1" d="M346.9,280.4c0.6,0.4,1.3,0.2,1.9-0.8l2.6-3.8c0.7-1.1,1.5-1.4,2.2-0.8c0.5,0.4,0.8,0.8,0.8,1.4
				c0,0.6-0.2,1.2-0.6,1.9l-2.4,3.6c-0.9,1.3-1.9,2.1-3.1,2.4s-2.3-0.1-3.6-0.9c-1.6-1.1-2.7-2.6-3.1-4.5c-0.4-1.9-0.1-3.6,0.9-5.2
				c0.8-1.1,1.6-1.8,2.7-2.1c1-0.3,2-0.1,3,0.5c1.1,0.8,1.7,1.8,1.6,3.1c0,0.7-0.4,1.6-1.1,2.6L346.9,280.4z M345,278.2l0.9-1.4
				c0.6-0.9,0.7-1.5,0.3-1.7c-0.5-0.3-0.9-0.1-1.3,0.4C344.4,276.3,344.4,277.2,345,278.2z"/>
		</g>
		<path class="st0" d="M359.3,245.4l4.6,5c2.3,2.5,3.8,4.3,4.6,5.4c0.8,1.1,1.3,2.3,1.6,3.7c0.4,1.9,0.2,3.8-0.6,5.6
			c-0.9,1.9-2.3,3.2-4.1,3.9s-3.7,0.5-5.6-0.4c-2.6-1.2-4.5-3.3-5.5-6.1c-0.6-1.5-0.8-3.2-0.7-5.1c0.1-1.9,0.5-3.5,1.2-5.1
			c0.3-0.7,0.8-1.2,1.3-1.5c0.5-0.3,1.1-0.3,1.6-0.1c0.6,0.3,0.9,0.7,1,1.4c0.1,0.4,0,1-0.3,1.8c-0.7,1.9-1,3.6-0.8,5.1
			c0.1,1.2,0.5,2.3,1.2,3.3c0.7,1,1.5,1.7,2.5,2.2c1,0.5,2,0.6,2.8,0.4c0.9-0.2,1.5-0.8,1.9-1.7c0.5-1.1,0.5-2.3-0.1-3.6
			c-0.6-1.3-1.8-3-3.8-5.1l-9.6-10.4l-0.7,1.5c-0.6,1.3-1.3,1.7-2.2,1.3c-0.6-0.3-1-0.8-1.2-1.4c-0.1-0.6,0-1.3,0.4-2.1l2.5-5.3
			c0.8-1.8,1.8-2.9,2.9-3.5s2.3-0.5,3.7,0.2c1.7,0.8,2.8,2.1,3.3,3.9c0.3,1.3,0,3-0.9,5L359.3,245.4z M356.6,242.5l0.5-1.1
			c0.7-1.5,0.4-2.5-0.8-3.1c-0.7-0.3-1.2-0.1-1.6,0.8l-0.4,0.9L356.6,242.5z"/>
		<g>
			<path class="st1" d="M358,230.9c0.2-0.6,0.6-1,1.1-1.2c0.5-0.3,1.1-0.3,1.6-0.1s1,0.6,1.2,1.1s0.3,1.1,0.1,1.6s-0.6,1-1.1,1.2
				c-0.5,0.3-1.1,0.3-1.6,0.1c-0.6-0.2-1-0.6-1.2-1.1C357.8,232,357.8,231.5,358,230.9z M369.9,237.3l0.6-1.6
				c0.4-1.2,1.1-1.7,1.9-1.4c0.6,0.2,1,0.6,1.1,1.1s0.1,1.2-0.1,2l-0.8,2.3c-0.3,0.9-0.7,1.5-1.2,1.8s-1.1,0.4-1.7,0.2
				c-0.3-0.1-0.7-0.4-1.1-0.7l-5-4.5l-0.3-0.3c-0.9-0.8-1.2-1.7-0.9-2.7c0.1-0.4,0.4-0.7,0.8-0.9c0.4-0.2,0.8-0.2,1.1-0.1
				c0.3,0.1,0.7,0.4,1.3,0.9L369.9,237.3z"/>
		</g>
		<g>
			<path class="st1" d="M377.1,225.2l-1.2,4.3c-0.4,1.2-1.1,2.1-2.2,2.6c-1.1,0.5-2.3,0.6-3.7,0.2c-1.8-0.5-3.3-1.6-4.2-3.3
				c-1-1.7-1.2-3.4-0.7-5.1c0.3-1.2,0.9-2,1.8-2.6c0.9-0.5,1.8-0.7,2.9-0.4c0.7,0.2,1.3,0.6,1.6,1.1s0.5,1,0.3,1.6
				c-0.3,0.9-0.8,1.2-1.7,1c-0.1,0-0.2-0.1-0.3-0.1c-0.1,0-0.2-0.1-0.3-0.1c-0.7-0.2-1.1,0-1.3,0.7c-0.2,0.6,0,1.3,0.5,2
				c0.5,0.7,1.2,1.2,2,1.5c0.7,0.2,1.3,0.1,1.7-0.2s0.8-1,1.1-2.1l0.8-2.8c0.4-1.3,1-1.7,1.9-1.5c0.6,0.2,1,0.5,1.2,1.1
				S377.4,224.4,377.1,225.2z"/>
		</g>
		<g>
			<path class="st1" d="M377.1,210.2l0.3-1.7c0.3-1.3,0.8-1.8,1.7-1.6c0.6,0.1,1,0.5,1.3,1c0.3,0.5,0.3,1.2,0.1,2l-0.4,1.9
				c-0.2,0.9-0.6,1.4-1.4,1.6c0.5,0.9,0.7,1.7,0.6,2.4l-0.4,1.7c-0.2,1.1-0.8,1.9-1.7,2.4c-0.9,0.5-2,0.6-3.3,0.4
				c-1.9-0.4-3.5-1.4-4.8-3.1c-1.2-1.6-1.7-3.3-1.3-5c0.3-1.3,0.9-2.1,1.9-2.5c-0.6-0.7-0.9-1.4-0.7-2.2c0.1-0.4,0.3-0.8,0.7-1
				c0.3-0.2,0.7-0.3,1.1-0.2c0.3,0.1,0.6,0.2,1,0.5l0.4,0.3L377.1,210.2z M376,215.6l0.1-0.4c0.2-0.8-0.1-1.4-0.7-1.9l-2.4-1.6
				c-0.3-0.2-0.6-0.3-0.8-0.4c-0.3-0.1-0.5,0-0.8,0.3c-0.3,0.2-0.4,0.5-0.5,0.9c-0.2,0.7,0.1,1.5,0.8,2.4c0.7,0.9,1.5,1.4,2.4,1.6
				C375.2,216.8,375.8,216.5,376,215.6z"/>
		</g>
		<g>
			<path class="st1" d="M373.4,200.8l1.2,0.7c1.1,0.6,1.6,1.3,1.5,2c-0.1,0.5-0.2,0.8-0.6,1.1c-0.3,0.3-0.7,0.4-1.1,0.3
				c-0.2,0-0.6-0.2-1.1-0.5l-4-2.3c-1-0.5-1.4-1.2-1.3-2c0.1-0.8,0.5-1.2,1.2-1.3l0.5-0.1c0.3,0,0.4-0.1,0.5-0.2s0.1-0.4,0.2-0.9
				l0.5-3.6c0.2-1.3,0.7-1.9,1.7-1.8c1.3,0.2,1.8,1.1,1.6,2.8l0.1,0.2c1.3,1.8,2.4,2.8,3.3,2.9c0.8,0.1,1.3-0.3,1.4-1.2l0.2-1.9
				c0.2-1.3,0.7-1.9,1.6-1.8c0.6,0.1,1.1,0.4,1.4,0.9c0.3,0.5,0.4,1.2,0.3,2l-0.4,3c-0.1,1-0.6,1.8-1.4,2.4
				c-0.8,0.6-1.7,0.8-2.9,0.6c-0.7-0.1-1.4-0.4-2-0.8s-1.4-1.1-2.2-2.1L373.4,200.8z"/>
		</g>
		<g>
			<path class="st1" d="M380,181.2l0.1-1.8c0.1-1.3,0.5-1.9,1.5-1.9c0.6,0,1.1,0.3,1.4,0.8c0.3,0.5,0.5,1.1,0.4,1.9l-0.1,2.1
				c0,0.8-0.4,1.4-1.1,1.7c0.6,0.7,0.9,1.4,0.9,2.2l-0.1,2c-0.1,1.1-0.5,2-1.3,2.7c-0.8,0.6-1.9,0.9-3.2,0.9c-2-0.1-3.7-0.9-5.2-2.3
				s-2.2-3-2.2-4.7c0.1-1.2,0.6-2.2,1.5-2.9l-8.2-3.8c-1.4-0.7-2.1-1.5-2-2.5c0-0.4,0.2-0.8,0.5-1.1c0.3-0.3,0.7-0.4,1.1-0.4
				c0.3,0,0.7,0.1,1.1,0.3l0.4,0.2L380,181.2z M379.8,186.8l0-0.6c0-0.7-0.2-1.2-0.8-1.4l-2.8-1.3c-0.3-0.2-0.6-0.2-0.8-0.3
				c-0.3,0-0.6,0.1-0.8,0.4s-0.4,0.6-0.4,1c0,0.8,0.4,1.6,1.2,2.3c0.9,0.7,1.8,1.1,2.8,1.2C379.3,188.1,379.8,187.6,379.8,186.8z"/>
		</g>
		<g>
			<path class="st1" d="M366.6,170.1c0-0.6,0.2-1.1,0.6-1.5c0.4-0.4,0.9-0.6,1.5-0.7c0.6,0,1.1,0.2,1.5,0.6c0.4,0.4,0.6,0.9,0.7,1.5
				s-0.2,1.1-0.6,1.5c-0.4,0.4-0.9,0.6-1.5,0.7c-0.6,0-1.1-0.2-1.5-0.6S366.6,170.7,366.6,170.1z M380,171.9l0-1.7
				c0-1.3,0.4-1.9,1.3-2c0.6,0,1.1,0.2,1.5,0.7c0.4,0.5,0.5,1.1,0.6,1.9l0,2.4c0,0.9-0.2,1.6-0.5,2.1c-0.4,0.5-0.9,0.8-1.5,0.8
				c-0.3,0-0.8-0.1-1.3-0.3l-6.3-2.4l-0.4-0.2c-1.2-0.5-1.8-1.2-1.8-2.2c0-0.4,0.1-0.8,0.4-1.1c0.3-0.3,0.6-0.5,1-0.5
				c0.3,0,0.8,0.1,1.5,0.4L380,171.9z"/>
		</g>
		<g>
			<path class="st1" d="M378.4,163.5c0.8-0.1,1.1-0.7,1-1.8l-0.4-4.6c-0.1-1.3,0.3-2,1.2-2c0.6,0,1.1,0.1,1.5,0.6
				c0.4,0.4,0.6,1.1,0.7,1.9l0.3,4.3c0.1,1.6-0.2,2.9-0.9,3.8c-0.7,0.9-1.9,1.4-3.4,1.5c-2,0.2-3.7-0.4-5.3-1.6
				c-1.5-1.2-2.4-2.8-2.5-4.6c-0.1-1.3,0.2-2.4,0.8-3.3c0.6-0.9,1.5-1.3,2.7-1.4c1.4-0.1,2.4,0.4,3.2,1.4c0.4,0.6,0.7,1.5,0.8,2.7
				L378.4,163.5z M375.5,163l-0.1-1.7c-0.1-1.1-0.4-1.6-0.8-1.5c-0.5,0.1-0.8,0.4-0.7,1.1C373.9,161.8,374.5,162.5,375.5,163z"/>
		</g>
		<g>
			<path class="st1" d="M205.6,187.7"/>
		</g>
		<g>
			<path class="st1" d="M194,219.5"/>
		</g>
		<g>
			<path class="st1" d="M168.5,47.1c-4.8,2.7-8.7,6.9-11,11.9c-2.3,5-3,10.6-2.3,16c0.4,2.7,1.1,5.3,2.3,7.7
				c1.2,2.5,2.6,4.8,4.3,6.9c3.4,4.3,7.8,7.7,12.8,9.9c2.5,1.1,5.1,1.9,7.8,2.4c2.7,0.5,5.4,0.6,8.1,0.5c2.7-0.1,5.4-0.6,7.9-1.4
				c2.6-0.8,5-1.9,7.3-3.4c4.6-2.9,8.4-6.9,11.1-11.5c2.8-4.6,4.5-9.8,5.3-15.2c0.8-5.4,0.8-10.9-0.1-16.2c-0.2-1.3-0.5-2.6-0.9-3.9
				c-0.4-1.3-0.8-2.5-1.4-3.7c-1.1-2.4-2.5-4.7-4.1-6.8c-3.2-4.2-7.4-7.8-12.1-10.1c-2.4-1.2-4.8-1.9-7.5-2.5
				c-2.6-0.5-5.3-0.9-8-1.1c-5.4-0.4-11-0.2-16.3,0.5c-5.4,0.8-10.8,2-16.1,3.4c-10.6,2.9-20.9,7-30.6,12.3
				c-19.4,10.5-36.3,25.3-49.2,43.1c-13,17.8-22,38.4-26.2,59.9c-2.1,10.8-3,21.7-2.8,32.7c0.2,11,1.7,21.9,4.3,32.5
				c5.2,21.2,15.2,41.3,29,58.2c13.7,16.9,31.2,30.8,50.8,40.2c19.6,9.5,41.3,14.4,62.9,14.6c10.8,0.1,21.7-0.9,32.3-3.1
				c10.6-2.2,20.9-5.6,30.8-10c9.9-4.4,19.2-10,28-16.4c8.7-6.5,16.7-13.9,23.8-22c14.3-16.3,25-35.8,31-56.8
				c3-10.5,4.9-21.3,5.6-32.2c0.7-10.9,0.2-21.9-1.4-32.7c-3.3-21.6-11.4-42.7-23.7-61c-6.1-9.2-13.2-17.8-21.2-25.5
				c-4-3.9-8.2-7.5-12.6-10.9c-4.4-3.4-9-6.6-13.7-9.6c-0.2-0.1-0.3-0.5-0.2-0.7c0.1-0.2,0.4-0.3,0.7-0.2
				c19.8,10.7,37.2,26,50.6,44.4c13.4,18.4,22.7,39.9,26.8,62.4c2,11.3,2.9,22.8,2.5,34.3c-0.4,11.5-2.2,22.9-5.1,34.1
				c-5.9,22.3-17,43.2-31.9,60.9c-15,17.6-33.9,32-55,41.5c-21.1,9.6-44.4,14.1-67.6,13.6c-23.1-0.4-46.1-6.2-66.8-16.5
				c-20.6-10.3-39-25.2-53.2-43.2c-14.3-18-24.6-39.2-29.8-61.6c-2.6-11.2-4-22.6-4.1-34.1c-0.1-11.5,1-22.9,3.3-34.1
				c4.6-22.4,14.3-43.8,27.9-62.1c13.6-18.3,31.4-33.6,51.6-44.2c10.1-5.3,20.8-9.5,31.8-12.3c5.5-1.4,11.1-2.5,16.8-3.3
				c5.8-0.6,11.5-0.7,17.2-0.3c2.9,0.2,5.7,0.6,8.6,1.3c2.8,0.6,5.8,1.6,8.4,2.9c5.3,2.7,9.8,6.8,13.3,11.5c1.7,2.4,3.3,4.9,4.4,7.6
				c0.6,1.4,1.1,2.8,1.5,4.2c0.4,1.4,0.7,2.9,0.9,4.3c0.9,5.8,0.8,11.6-0.1,17.3c-1,5.7-2.9,11.3-6,16.2c-3.1,5-7.3,9.2-12.2,12.3
				c-2.4,1.5-5.2,2.8-8,3.6c-2.8,0.8-5.7,1.3-8.6,1.4c-2.9,0.1-5.8-0.1-8.6-0.7c-2.8-0.6-5.6-1.5-8.2-2.7
				c-5.3-2.4-9.9-6.1-13.4-10.7c-1.8-2.3-3.2-4.8-4.4-7.4c-1.3-2.6-2-5.5-2.3-8.3c-0.6-5.7,0.3-11.6,2.8-16.8
				c2.5-5.2,6.7-9.5,11.7-12.2c0.2-0.1,0.5,0,0.7,0.2C168.8,46.6,168.7,46.9,168.5,47.1z"/>
		</g>
	</g>
</g>
</svg>
