<?xml version="1.0" encoding="utf-8"?>
<!-- Generator: Adobe Illustrator 21.0.0, SVG Export Plug-In . SVG Version: 6.00 Build 0)  -->
<svg version="1.1" xmlns="http://www.w3.org/2000/svg" xmlns:xlink="http://www.w3.org/1999/xlink" x="0px" y="0px"
	 viewBox="0 0 1190.6 841.9" style="enable-background:new 0 0 1190.6 841.9;" xml:space="preserve">
<style type="text/css">
	.st0{fill:#FFFFFF;}
	.st1{fill:#1B2433;}
	.st2{fill:#C32227;}
	.st3{fill-rule:evenodd;clip-rule:evenodd;fill:#C32227;}
	.st4{fill:#671316;}
	.st5{fill:#E2231A;stroke:#000000;stroke-width:0.5;stroke-miterlimit:10;}
	.st6{fill:#121212;}
	.st7{fill:#1A1B1C;}
</style>
<g id="Calque_2">
</g>
<g id="Calque_1">
	<g>
		<path id="Tête_1_" class="st0" d="M556.7,299.7c4.4,26.1-7.5,50.1-26.9,53.4c-19.4,3.3-38.9-15.4-43.3-41.5
			c-4.4-26.1,7.7-49.9,27.1-53.2C532.9,255.1,552.2,273.6,556.7,299.7z"/>
		<path class="st0" d="M737.2,677.7c-6.2-29.4-34.5-77.7-39.8-88.7c-7.1-14.8-36.9-81.5-42-104.9c-7.1-33-7.8-158.5-33.1-165.4
			c0,0-31.5,24-51.6,28.2c-8.8,1.8-18.3,1.1-26.4,2c-3.9,3.4-9,3.7-14.1,4.6c-7.2,1.2-14.6,0.8-21-3.4c-27.7-0.1-47.3-3.7-59.2-3.2
			c-55.6,2.6-56,11.9-56,11.9s33.5,23.6,50.6,134.1c0,0,18.6,97.4,19.4,109.6c0.8,12.2,1.7,41.2-4.5,58.4c-4,11.2-14.1,32-20.6,45.1
			l7.7,8.6c31.7-7.4,109.5-24.9,140.6-24.9c77.7,0,120.7,15.1,139.9,24.5l14.5-2.6C741.7,705.3,740.8,694.8,737.2,677.7z"/>
		<path id="Bras_droit_2_" class="st1" d="M395.1,357.3c0,0-25.1,34.3-36.2,65.9c-15.1,42.9-10.2,63.6-10.2,63.6s-4.3,0.1-4.3,4.2
			c0,6.6,3.7,10.4,3.7,10.4s4.6,14.8,24,34.2c24.5,24.5,59.1,30.5,59.1,30.5s-1-4.4,0.1-8.5c1.2-4.1,3.9-9.2,3.9-9.2
			s-16.3-19.4-27.7-30.6c-13-12.9-31.3-21.3-31.3-21.3s16.9-15.7,26.7-38.9c10.7-25.2,11-47.1,17.8-56c0,0-5.4-13.8-11.7-23.5
			C402.7,368.2,395.1,357.3,395.1,357.3z"/>
		<path id="Bras_gauche_1_" class="st1" d="M628.4,323.5c0,0,13.4-14.7,34.4-24.7c28.9-13.7,40.8-12.1,40.8-12.1
			s-9.3-15.7-11.7-33.8c-2.4-18.1-2.7-38.8-2.7-38.8s4.7-1.4,8.4-5.9c3.7-4.5,4.8-10.8,4.8-10.8s19.2,23.3,25,43.4
			c1.3,4.5,4.1,15.7,4.6,30c0.5,14.3-3.3,29.3-3.3,29.3s1.1,4.3-2.5,9.4c-3.6,5.1-8.1,1.1-8.1,1.1S704.6,329.9,694,339
			c-19.2,16.4-51.2,30.8-51.2,30.8s-2.2-12.7-5.5-26.4C634.4,330.7,628.4,323.5,628.4,323.5z"/>
		<path id="Chaussure_droite_1_" class="st2" d="M446.9,714.9l-8-8.9c0,0-10.7-0.3-14.3,4.8c-3.9,5.6-1.3,11.5-4.8,15.6
			c-2.2,2.6-9.7,13.6-13,25.9c-3.3,12.4-4,24.6-13.3,34.3c-7.8,8.2-18.2,11-20.9,12.7c-2.5,1.5,0.8,3.4,2.1,3.7
			c1.3,0.3,10,2.6,15.2,1.5c5.7-1.3,39-10.5,55.7-37.3c14.8-23.7,6.2-33.5,5.3-34.7C445.8,725.8,446.9,714.9,446.9,714.9z"/>
		<path id="Chaussure_gauche_1_" class="st2" d="M726.2,714.5l16.5-3c0,0,1,2.6,3.6,3.8c2.7,1.2,7.5,2,7.9,5.7s-2.9,9.4-1.9,14.2
			c1.5,6.6,16.5,23.6,29.6,32.2c17.4,11.4,36.5,18,40.9,21.6c1.4,1.1,0.3,3.3-1.6,3.3c-1.9-0.1-33.4-1.3-46.6-3.4
			c-23.2-3.7-33.3-5.8-56.6-19.8c-20.1-12.1-10.5-29-7.4-31.8c2.9-2.7,8.3-5.2,10.6-7.8C723.1,727.4,726.2,714.5,726.2,714.5z"/>
		<path id="Baton_4_" class="st1" d="M677.6,195.1L476.8,70.3l4.7-7.5l197.8,122.8c0,0-1.4,0.9-1.7,3.1
			C677.2,191,677.6,195.1,677.6,195.1z"/>
		<path id="F_1_" class="st3" d="M550.1,466.4c-1.4,0.4-2.7,0.9-4.1,1.3c-4,1.1-8,1.5-12.1,1.6c-7.7,0.2-15.2-0.8-22.7-2.4
			c-0.9-0.2-1.8-0.2-2.6,0.1c-3.7,1.3-6.6,3.7-8.3,7.2c-0.5,0.9-0.7,1.9-0.8,3c-0.2,2.7,1.3,4.7,4,5.3c1.1,0.2,2.2,0.2,3.4,0.1
			c0.6-0.1,1.2-0.1,1.8-0.2c-2.4,0.9-4.8,1.6-7.3,1.8c-2,0.1-3.9,0-5.6-1c-0.5-0.3-0.8-0.2-1.1,0.2c-0.8,1-1.6,2-2.4,2.9
			c-0.6,0.7-1.2,1.4-2.1,1.9c-0.1-0.1-0.2-0.2-0.3-0.3c-1.9-6.3-0.5-12.8,4.6-17.2c2.3-2,5-3.3,8-4c3.6-0.9,7.2-1.2,10.8-0.9
			c1.6,0.1,3.1,0,4.7-0.2c6.5-0.8,12.9-2.4,19.1-4.5c10.1-3.3,19.8-7.6,29.2-12.5c2.8-1.5,5.6-3.1,8.5-4.3c6.8-2.8,13.8-4.3,21.1-5
			c2.9-0.3,5.8-0.4,8.8-0.3c1.6,0,3.2,0.2,4.8,0.1c1.9-0.2,3.8-0.7,5.7-1.2c0.3-0.1,0.5-0.2,0.8-0.3c0.1,0.5-0.2,0.9-0.3,1.3
			c-1.9,5.2-3.6,10.4-4.3,15.8c-0.3,2.4-0.5,4.7-0.1,7.1c0.2,1.2,0.7,2.2,1.2,3.4c-0.5,0-0.8-0.2-1.1-0.4c-6.4-3-13.1-5.2-20.2-5.8
			c-4.7-0.4-9.4-0.1-13.8,1.8c-5.5,2.3-9.3,6.3-12,11.5c-0.5,1-0.8,2-1,3.1c-0.5,3.3-0.6,6.6-0.2,9.9c0.2,1.7,0.7,3.3,1.7,4.8
			c1.1,1.7,2.7,2.8,4.7,3.2c2.4,0.5,4.8,0.3,7.2-0.3c5.8-1.3,11.2-3.7,16.2-6.9c1.4-0.8,2.6-1.9,3.9-2.9c0.3-0.3,0.6-0.6,1.2-0.7
			c-0.2,2-0.5,4-0.5,5.9c-0.1,4.1,0.2,8.2,1.7,12.1c0.6,1.5,1.4,2.9,2.4,4.2c-0.4,0.3-0.7,0.1-1.1,0.1c-5.9-0.5-11.7-0.9-17.6-0.5
			c-3,0.2-5.9,0.4-8.7,1.6c-0.2,0.1-0.4,0.2-0.6,0.3c-2.5,1.3-3,3.1-1.6,5.5c4.9,8.1,9.6,16.3,14.6,24.4c2.9,4.7,6.2,9.3,9.2,13.9
			c3.1,4.7,6.2,9.5,8.4,14.7c5,11.4,5.7,23.1,2.5,35.1c-2.5,9.4-6.8,17.8-13.6,24.8c-6.2,6.5-13.6,11.2-22.3,13.6
			c-15,4.2-29.2,2.3-42.4-6.2c-8.1-5.2-13.8-12.4-16.9-21.5c-2.8-8.1-3.3-16.4-1-24.7c2-7.1,5.8-13.2,10.9-18.5
			c4.5-4.7,9.7-8.2,15.9-10c11.6-3.3,22.9-2.7,33.2,4.3c7.9,5.3,12.5,12.9,13.2,22.5c0.6,9.5-3.1,17.3-10.6,23.2
			c-5.3,4.1-12.7,4.4-18.1,0.8c-2.7-1.8-4.6-4.1-5.5-7.3c-0.8-2.9-0.2-5.6,1.5-7.9c1.4-2,4.1-2.8,6.2-1.9c1.5,0.6,2.5,1.8,2.7,3.4
			c0.2,1.7-0.3,3.1-1.7,4.2c-0.7,0.5-1.5,0.8-2.2,1.2c-1.4,0.7-1.5,1.4-0.7,2.7c0.6,1,1.3,1.7,2.3,2.3c3.4,1.9,6.9,2.2,10.4,0.4
			c7-3.5,10.4-9.4,10.9-16.9c0.7-9.4-3.1-16.8-10.5-22.4c-5.8-4.3-12.5-6.1-19.6-6c-11.3,0.2-19.9,5.3-26.6,14.1
			c-4.5,5.9-7,12.5-7.1,20c-0.2,8,2.2,15.2,6.9,21.7c6.7,9.3,15.9,14,27.2,15.1c4.4,0.4,8.7,0.2,13-0.8c5.9-1.4,11-4.3,15.5-8.4
			c6.5-6.1,11.2-13.4,13.4-22.1c2.7-10.5,1.1-20.4-4.3-29.7c-2.9-4.9-6.1-9.7-9.3-14.4c-4.7-6.8-9.5-13.6-13.6-20.9
			c-1.1-1.9-2.5-3.6-3.8-5.4c-4.9-6.9-8.8-14.2-11.7-22.1c-2.9-8-4.4-16.3-3.6-24.9c0.5-5,1.8-9.8,4-14.4
			C549.7,467.5,550,467.1,550.1,466.4z"/>
		<path class="st4" d="M517,378.4c0,0,0.4,6.6-0.9,10.6c-1.3,3.9-6.9,11.5-6.9,11.5l33.4-5.6c0,0-8.6-4.5-12.1-9.8
			c-2-3-4.4-8.2-4.4-8.2l-4.2-3.8L517,378.4z"/>
		<path id="Colerette_2_" class="st4" d="M394,358.8c8.7,5.6,21.1,38.1,48.6,38.1c20,0,30.7-13,30.7-13s13.2,9.5,28.2,6.8
			c18.3-3.3,26-15.7,26-15.7s10.1,12.7,27.5,11.2c11.5-1,19.6-11.3,19.6-11.3s12.5,4,25.2,4.2c18.4,0.4,27.8-9.1,32.5-26.6
			c4.2-15.8-6.5-31.9-11.9-28.3c0,0-35.6,29.4-103.2,29.4c-74.3,0-45.8-8.2-104.6,0.8C394.3,357.2,394,358.8,394,358.8z"/>
		<g>
			<path class="st2" d="M522.5,375.5c0,0,0.4,6.6-0.9,10.6c-1.3,3.9-6.9,11.5-6.9,11.5l33.4-5.6c0,0-8.6-4.5-12.1-9.8
				c-2-3-4.4-8.2-4.4-8.2l-4.2-3.8L522.5,375.5z"/>
		</g>
		<path class="st4" d="M527.5,370c0,0-1.5,2.4-4.8,5.4c1,0.6,3.4,1.9,6,2.6c1.9,0.5,5.3,0.6,5.3,0.6l-2.3-4.6
			C528.9,371.9,527.5,370,527.5,370z"/>
		<path class="st4" d="M456,553.7l-0.7-2.2c0,0-4.4,1.9-8.3,0.9c-0.3-0.1-0.6-0.2-0.9-0.2c1.4,1.3,3.1,2.6,4.2,2.7
			C453,555.2,456,553.7,456,553.7z"/>
		<path class="st2" d="M728.2,236.6c-8.6-17.2-13.3-33-31-46.5c-2.1-1.6-7.2-3.8-9-5.1c-2.5-1.8-3.4-3-4-5c-0.6-2-1.1-3-1.9-4
			c-1-1.4-2.4-2.3-3.7-2.6c-1.3-0.3-3,0-3,0s-1.1-1.1-2.7-1.1c-1.3,0-2.5,1-2.5,1s-0.5-1.7-3-2.3c-2.5-0.6-3.9,0.7-3.9,0.7
			s-0.7-1.1-2.1-1.7c-1.6-0.7-2.7-0.7-4.2,0.7c-1.5,1.3-0.5,3.9-0.5,3.9s0,0.1,0.1,0.2c0,0,0,0,0,0c-0.6,1.2-1,2.8-1.6,4
			c-1.1,2.2,1.1,6.3,2.8,9.9c1.7,3.6,9.3,6,9.3,6s3.6,0.4,6.1,1.2c2.5,0.8,4.4,3.1,4.4,3.1c5.2,4.2,8.1,12.5,8.5,28.2
			c0.5,18,2,28.1,2,28.1s11.1,0.3,21.6,4.8c10.5,4.6,30.1,16.5,30.1,16.5S736.8,253.8,728.2,236.6z M675.7,188.6
			c-0.9-0.3-4.1-0.5-5.2-1.1c-1.1-0.5-4.3,0-6-0.2c-1.7-0.3-3.2-3.4-4-5c-0.3-0.7-0.5-1.4-0.5-2.1c0.7,1.2,1.3,2.2,1.5,2.5
			c0.5,0.7,1.2,1.4,2.1,1.4c0,0,1.1-0.3,1.4-0.8c0.2-0.6,0.4-0.8,0.4-0.8s0.4,2.1,1.2,2.8c0.9,0.7,1.6,1.4,2.5,1.4
			c0.9-0.1,2-0.7,2.1-1.1c0-0.5-0.1,0.9,0.7,1.4c0.7,0.5,2,1.1,2.4,0.7c0.4-0.5,1.7-1.8,1.8-2.4c0.1-0.5,0.7,0.7,1.4,0.9
			c0.8,0.1,1.4,0.1,1.4,0.1C679,187.5,675.7,188.6,675.7,188.6z"/>
		<g>
			<path class="st2" d="M489.8,55.9c0,0-4.4,10.2-6.5,13.9c-3.1,5.5-8.5,11-8.5,11c1.9-4.2,1.2-10.8,3.3-14.2
				C480.3,63.2,487,59.6,489.8,55.9z"/>
			<path class="st3" d="M472.5,39.4c-6.9-4.2-12.6,0.7-17.9,2.9c-4.9,2-10.9,2.6-12.7,2c1.3,1.4,3.8,6.6,4.2,12.1
				c0.4,5.7-1,13,6,17.1c12.8,7.5,22.8-3.6,14.5-14.5C479.5,61.1,485.2,47.1,472.5,39.4z"/>
			<path class="st2" d="M464.4,58.8c0,0,15,6.2,10.4,22.3c0,0,4.2-10.5,6.1-13.7c1.9-3.1,9-11.6,9-11.6s-9.8,10.3-24.6,1.7
				L464.4,58.8z"/>
		</g>
		<path id="Baton_3_" class="st1" d="M678.5,185.2l166.2,105.7c0,0.3,0.1,0.5,0.1,0.8c0.2,3.1-1.7,5.8-4.5,6.9L678.7,196.4
			c0,0-2.9-6.7-4.3-8.1"/>
		<path class="st5" d="M687.6,175.6"/>
		<g>
			<path class="st1" d="M664.9,181.1c-0.2-0.2-0.4-0.5-0.6-0.7l-0.2-0.8l-0.4-1.6c-0.2-0.6-0.3-1.1-0.4-1.7c0-0.3-0.1-0.6-0.1-0.9
				c0.1-0.3,0.2-0.6,0.4-0.9l0.4,0.8c0,0.3,0,0.5,0.1,0.8c0.1,0.5,0.2,1.1,0.4,1.6l0.4,1.7l0.2,0.8C665,180.5,665,180.8,664.9,181.1
				z"/>
			<path class="st1" d="M671.1,184.3c-0.2-0.4-0.4-0.7-0.5-1.1l-0.1-1.2c-0.1-0.8-0.1-1.6-0.1-2.4c0-0.7-0.3-1.5-0.3-2.3
				c0-0.4-0.1-0.8,0-1.2c0.1-0.4,0.3-0.8,0.5-1.2c0.1,0.4,0.1,0.8,0.3,1.2c0,0.4,0,0.7,0,1.1c0.1,0.7,0.3,1.5,0.3,2.4
				c0,0.8,0.1,1.6,0.1,2.3l0.1,1.2C671.3,183.5,671.2,183.9,671.1,184.3z"/>
			<path class="st1" d="M675.9,183.9c-0.1-0.4-0.2-0.8-0.4-1.1c0-0.4-0.1-0.8-0.1-1.1c-0.1-0.8-0.2-1.5-0.2-2.3
				c0-0.8-0.1-1.5-0.1-2.3c0-0.4,0-0.8,0-1.2c0.1-0.4,0.3-0.8,0.5-1.1c0,0.4,0.1,0.8,0.2,1.2c0,0.4,0,0.7,0,1.1
				c0,0.8,0.1,1.5,0.1,2.3c0,0.7,0.2,1.5,0.2,2.3c0,0.4,0.1,0.8,0.1,1.2C676.2,183.2,676.1,183.6,675.9,183.9z"/>
			<path class="st1" d="M679.2,183c-0.3-0.2-0.3-0.5-0.4-0.8l0.1-0.8c0.1-0.5,0.2-1,0.3-1.5c0.1-0.5,0.4-1,0.6-1.5l0.4-0.7
				c0.2-0.2,0.4-0.3,0.7-0.5c0,0.3,0,0.6,0,0.8l-0.3,0.7c-0.2,0.5-0.4,0.9-0.5,1.3c-0.1,0.5-0.2,1-0.3,1.4c0,0.2-0.1,0.5-0.1,0.7
				C679.4,182.5,679.3,182.8,679.2,183z"/>
			<path class="st1" d="M679.1,183.6c0.1,0.2,0.2,0.4,0.3,0.6l-0.1,0.5c-0.1,0.3-0.2,0.7-0.5,1c-0.2,0.3-0.6,0.6-1,0.7
				c-0.2,0.1-0.5,0.1-0.7,0c-0.2-0.2-0.3-0.4-0.3-0.6c0.2,0,0.4,0,0.5-0.1c0.1,0,0.2,0,0.3,0c0.2-0.1,0.4-0.2,0.5-0.4
				c0.2-0.2,0.3-0.5,0.4-0.8c0-0.1,0.1-0.3,0.1-0.4C678.8,183.8,678.9,183.7,679.1,183.6z"/>
			<path class="st1" d="M657.2,174.5c0-0.4,0.1-0.8,0.4-1.2c0.1-0.2,0.5-0.3,0.7-0.3c0.2,0,0.4-0.1,0.7,0c0.6,0.1,0.9,0.5,1.2,0.8
				c0.3,0.4,0.4,0.8,0.6,1.2c0.1,0.4,0.1,0.9,0.1,1.3c0,0.4-0.1,0.8-0.2,1.2l-0.1,0.3c0,0.1,0,0.1-0.1,0.2c0,0.2-0.1,0.4-0.1,0.5
				l-0.5,1.1c-0.1-0.4-0.2-0.8-0.3-1.2c0-0.2,0.1-0.4,0.1-0.6c0-0.1,0-0.2,0.1-0.3l0.1-0.2c0.1-0.7,0.3-1.5,0.1-2.1
				c-0.1-0.3-0.2-0.6-0.4-0.9c-0.2-0.3-0.4-0.5-0.7-0.5c-0.1,0-0.3,0-0.5,0c-0.1,0-0.2,0-0.3,0.2C657.8,174,657.5,174.3,657.2,174.5
				z"/>
		</g>
		<g>
			<path id="Haut_chapeau_2_" class="st6" d="M455.1,291.6c0,0-20.3-29.2-25.7-30.1c-8-1.3-10,0.3-11.8-5.8
				c-1.8-6.2,6.6-27.2,39.3-45.6c19.5-10.9,45.8-10.4,47.8-7c1.6,2.6-1.4,7.4-1.4,7.4s10,11.7,14.3,15.3c4.3,3.7,11.6,9.3,11.6,9.3
				c-13.2-3.3-27.2,2.5-41.4,10.4C467.3,257.1,456.9,276.1,455.1,291.6z"/>
			<path id="Haut_chapeau_1_" class="st1" d="M455.1,291.6c0,0-20.3-29.2-25.7-30.1c-8-1.3-10,0.3-11.8-5.8
				c-1.8-6.2,6.6-27.2,39.3-45.6c19.5-10.9,45.8-10.4,47.8-7c1.6,2.6-1.4,7.4-1.4,7.4s10,11.7,14.3,15.3c4.3,3.7,11.6,9.3,11.6,9.3
				c-13.2-3.3-27.2,2.5-41.4,10.4C467.3,257.1,456.9,276.1,455.1,291.6z"/>
			<path class="st7" d="M433.2,241.2c-5.5-16.8-16.8,9.1-15.5,13.3c1.8,6.2,3.7,4.5,11.8,5.8c5.4,0.9,25.7,30.1,25.7,30.1
				c1.1-9,5-19.1,12.1-28.3C467.2,262.1,435.3,247.8,433.2,241.2z"/>
			<path class="st6" d="M514.9,233.9c-29.1,6.4-60.4,28.1-60.4,65.1c0,22.5,9.7,38.9,22.8,48.6c5.6,0.4,12.2,0.9,16.2,1
				c3.2,0.1,9.4,0.2,16,0.3c-10.9-6.7-19.6-20.1-22.4-36.5c-4.4-25.8,7.6-49.4,26.8-52.7c19.2-3.3,38.3,15,42.7,40.9
				c0.7,4.4,1,8.7,0.9,12.8c3.7-9.4,6-18.9,6.2-27.2C564.6,253.5,539.7,228.5,514.9,233.9z"/>
			<path class="st1" d="M514.9,233.9c-29.1,6.4-60.4,28.1-60.4,65.1c0,22.5,9.7,38.9,22.8,48.6c5.6,0.4,12.2,0.9,16.2,1
				c3.2,0.1,9.4,0.2,16,0.3c-10.9-6.7-19.6-20.1-22.4-36.5c-4.4-25.8,7.6-49.4,26.8-52.7c19.2-3.3,38.3,15,42.7,40.9
				c0.7,4.4,1,8.7,0.9,12.8c3.7-9.4,6-18.9,6.2-27.2C564.6,253.5,539.7,228.5,514.9,233.9z"/>
			<path class="st7" d="M509.9,348.6c-10.1-6.8-20-19.5-22.8-35.8c-2.5-14.9,0.6-29.4,7.2-39.4c-0.6-0.9-1.3-1.2-1.5-1.5
				c-1.4-2.2-13.6,2.9-16.9-1.2c-3.3-4.1,0-17,0-17l-7.3,6.8c-8.7,10.2-14.3,23.1-14.3,38.8c0,22.5,9.7,38.9,22.8,48.6
				c5.6,0.4,12.2,0.9,16.2,1C496.6,349,503.3,348.5,509.9,348.6z"/>
		</g>
		<path d="M552.6,303.7L552.6,303.7c0,0,0.3,1.3-1.5,3.7c-2,2.8-6.7-0.3-11.5,0.6s-6,5.7-6,5.7s1.5-3.1,7.7-1
			c6.2,2,8.8,0.8,10.3-1.8C553,308.3,553.3,305.9,552.6,303.7z"/>
		<path d="M505.1,314.5L505.1,314.5c0,0,0.3,1.3,3.7,2.5c3.9,1.4,8.2-3.7,14.5-5.3c6.3-1.6,10.3,2,10.3,2s-3.4-2-10.1,3
			c-6.7,5-10.6,5.2-13.7,3.6C507,318.7,505.4,316.8,505.1,314.5z"/>
		<path class="st4" d="M510.8,349.1c-7-0.1-13.8-0.2-17.2-0.3c-8.3-0.2-26.7-1.9-26.7-1.9c15.3,18.5,29.4,21.3,47.4,14.7
			c8.1-3,11.7-5.9,14.1-8.4C522.4,353.8,516.4,352.3,510.8,349.1z"/>
		<path class="st2" d="M620.3,319.2c0,0-26.6,21.9-77.3,27.8c-3.7,3.1-8,5.1-12.8,5.9c-7,1.2-14-0.5-20.3-4.4
			c-65.2-0.5-40.6-7.8-97.3,0.8c-18.4,2.8-18.7,9.4-18.7,9.4c8.7,5.6,21.1,33.1,48.5,33.1c20,0,30.7-13,30.7-13s13.2,9.5,28.2,6.8
			c18.3-3.3,26-15.7,26-15.7s10.1,12.7,27.5,11.2c11.5-1,19.6-11.3,19.6-11.3s12.5,4,25.2,4.2c18.4,0.4,27.8-9.1,32.5-26.6
			C636.4,331.7,625.8,315.7,620.3,319.2z"/>
		<path id="Gant_droit_1_" class="st2" d="M355.9,528.9c0,0,16.8-3.3,25.8-6.9c9-3.6,20.6-12.3,20.6-12.3s11.4,9.7,18.7,16.9
			c7.3,7.3,11.8,17.6,17.6,21.3c5.9,3.7,4.6,3.3,8.6,4.3c3.9,1,8.3-0.9,8.3-0.9l0.7,2.2c0,0,6.6-0.1,12.7,0.9c6.1,1,8.5,1.8,9.1,2.6
			c0.7,0.7,0.7,1.8-0.3,2.7c-1,0.8-7.9-0.7-10.1-0.8c-2.2-0.1-8.3,0.2-8.3,0.2s7.7,3.5,10.7,6.1c3,2.7,5,4.8,5,5.8s-0.4,1.6-1.8,1.4
			c-1.5-0.2-5.1-3.7-6.7-4.6c-1.6-0.9-5.8-3.2-10.7-5.7c0,0,8.4,4.9,10.8,6.8c2.4,1.9,5.1,4,5.1,5.2c0,0,0.4,1.6-0.9,2.1
			s-7-4.6-10.6-6.7c-3.6-2-4.8-2.9-6.1-3.4s7.8,4.3,9.3,6c1.5,1.7,4.3,5.3,4.2,6.2c-0.1,1,0.2,1.4-1.2,1.8c-1.3,0.5-2.2-3.1-7.3-5.1
			c-5.2-2-11.9-4.1-16.7-5s-11.5-2-17.7-3.7c-6.2-1.7-28.4-7.3-44.7-18.6C363.4,536.8,360,534.5,355.9,528.9z"/>
	</g>
</g>
</svg>
